<?xml version="1.0" encoding="UTF-8"?>
<svg id="Camada_1" xmlns="http://www.w3.org/2000/svg" version="1.1" viewBox="0 0 1080 1080">
  <!-- Generator: Adobe Illustrator 30.0.0, SVG Export Plug-In . SVG Version: 2.1.1 Build 123)  -->
  <defs>
    <style>
      .st0 {
        fill: #1c396b;
      }

      .st1 {
        fill: #fff;
      }

      .st2 {
        fill: #1c396a;
      }

      .st3 {
        fill: #1a9dd9;
      }

      .st4 {
        fill: #a4175b;
      }

      .st5 {
        fill: #e30b17;
      }

      .st6 {
        fill: #80398d;
      }

      .st7 {
        fill: #ffdb04;
      }

      .st8 {
        fill: #f4f4f4;
      }

      .st9 {
        fill: #42ab38;
      }
    </style>
  </defs>
  <g>
    <g>
      <path class="st8" d="M490.4,341.8v-19.3c13.5-2.5,30-4.5,48.7-4.5,19.5,0,36.6,2,50.5,4.5v19.3"/>
      <path class="st0" d="M591.6,341.8h-4v-17.7c-16-2.8-32.2-4.2-48.5-4.2-15.6,0-31.4,1.5-46.8,4.2v17.7h-4v-21l1.6-.3c16.2-3,32.7-4.5,49.1-4.6,16.9-.1,34.2,1.5,50.9,4.6l1.6.3v21Z"/>
    </g>
    <g>
      <path class="st8" d="M462.1,375.2v-30.3c21.2-3.9,47.1-7,76.5-7.1,30.6,0,57.4,3.1,79.3,7.1v30.3"/>
      <path class="st0" d="M619.9,375.2h-4v-28.7c-25.4-4.6-51.4-6.8-77.3-6.8-24.9,0-50,2.4-74.5,6.8v28.7h-4v-32l1.6-.3c25.3-4.6,51.2-7,76.9-7.1,26.6-.2,53.5,2.3,79.7,7.1l1.6.3v32Z"/>
    </g>
  </g>
  <g>
    <g>
      <path class="st3" d="M489.3,139v42.9c16.9,13.5,33.8,26.9,50.7,40.4,0-5.5,0-11,0-16.4l-50.7-66.8Z"/>
      <path class="st2" d="M542,226.4l-54.7-43.6v-49.7l54.7,72.1v21.2ZM491.3,180.9l46.7,37.2v-11.7l-46.7-61.6v36Z"/>
    </g>
    <g>
      <path class="st9" d="M590.7,139l-50.7,66.8c0,5.5,0,11,0,16.4,16.9-13.5,33.8-26.9,50.7-40.4v-42.9Z"/>
      <path class="st2" d="M538,226.4v-21.2s54.7-72.1,54.7-72.1v49.8l-54.7,43.6ZM542,206.5v11.7s46.7-37.2,46.7-37.2v-36l-46.7,61.6Z"/>
    </g>
    <g>
      <path class="st7" d="M540,222.3v.5h0v16.4h0c23.7-12,47.3-24,71-36v-37.5l-71,56.5Z"/>
      <path class="st2" d="M538,242.5v-21.2l75-59.7v42.9l-75,38ZM542,223.2v12.8l67-34v-32.2l-67,53.4Z"/>
    </g>
    <g>
      <polygon class="st5" points="631.3 193 561 228.6 540 239.3 540 239.3 540 239.3 540 313.3 540 313.3 540 313.3 540 313.3 631.3 267 631.3 193"/>
      <path class="st2" d="M538,316.5v-78.5s95.2-48.3,95.2-48.3v78.5l-95.2,48.3ZM542,240.5v69.6l87.3-44.2v-69.6l-87.3,44.2Z"/>
    </g>
    <g>
      <path class="st6" d="M469,165.7v37.6c23.7,12,47.3,24,71,36,0-5.7,0-11.3,0-17l-71-56.5Z"/>
      <path class="st2" d="M542,242.5l-75-38v-42.9l75,59.7v21.2ZM471,202.1l67,34v-12.8l-67-53.4v32.2Z"/>
    </g>
    <g>
      <path class="st4" d="M540,239.3h0c-30.4-15.4-60.8-30.8-91.2-46.3v74l91.3,46.3h0s0,0,0,0h0s0,0,0,0v-74Z"/>
      <path class="st2" d="M542,316.5l-95.2-48.3v-78.5l95.2,48.3v1.2s0,77.3,0,77.3ZM450.7,265.8l87.3,44.3v-69.6s-87.3-44.2-87.3-44.2v69.6Z"/>
    </g>
  </g>
  <g>
    <g>
      <path class="st8" d="M741.9,635.1l61.8,66.8c10.6,15.8,4.9,36.2-8.3,43.4-13.8,7.5-35,.4-41.7-18.4-3.9-30.6-7.8-61.2-11.7-91.8Z"/>
      <path class="st0" d="M783.3,750.3c-3.8,0-7.7-.7-11.5-2.2-9.3-3.5-16.6-11-20.1-20.5v-.4c-.1,0-12.6-98-12.6-98l66,71.3c5.6,8.3,7.3,18.2,5,27.5-2.1,8.4-7.1,15.3-13.9,19-3.9,2.1-8.4,3.2-13,3.2ZM755.5,726.5c3,8.3,9.5,14.8,17.6,17.9,7.4,2.8,15.1,2.5,21.2-.8,5.8-3.2,10.2-9.2,11.9-16.5,2-8.2.4-17-4.3-24.1l-57.4-62,10.9,85.5Z"/>
    </g>
    <g>
      <path class="st8" d="M338.1,635.1l-61.8,66.8c-10.6,15.8-4.9,36.2,8.3,43.4,13.8,7.5,35,.4,41.7-18.4,3.9-30.6,7.8-61.2,11.7-91.8Z"/>
      <path class="st0" d="M296.7,750.3c-4.6,0-9.1-1.1-13-3.2-6.8-3.7-11.8-10.6-13.9-19-2.3-9.3-.5-19.2,4.9-27.2l66.2-71.6-12.6,98.4c-3.4,9.5-10.7,16.9-20.1,20.5-3.8,1.4-7.7,2.2-11.5,2.2ZM335.3,641l-57.6,62.2c-4.6,6.9-6.1,15.6-4.1,23.9,1.8,7.3,6.1,13.3,11.9,16.5,6.1,3.3,13.8,3.6,21.2.8,8.2-3.1,14.6-9.6,17.7-17.9l10.9-85.5Z"/>
    </g>
  </g>
  <g>
    <path class="st8" d="M758.3,375.2h-436.5c-7.2,8.4-35.9,44.1-34.6,97.2,1.2,48.5,26.8,80.7,34.6,89.8h436.5c7.8-9.1,33.3-41.3,34.6-89.8,1.4-53.1-27.4-88.8-34.6-97.2Z"/>
    <path class="st0" d="M759.2,564.2h-438.4l-.6-.7c-12.6-14.8-33.9-46.2-35-91-1.3-50.3,24.1-85.7,35-98.5l.6-.7h438.4l.6.7c11,12.9,36.3,48.2,35,98.5-1.2,44.8-22.5,76.3-35,91l-.6.7ZM322.7,560.2h434.7c12.3-14.6,32.4-44.9,33.5-87.9,1.2-48.1-22.5-82.1-33.5-95.1h-434.7c-11,13.1-34.7,47.1-33.5,95.1,1.1,42.9,21.2,73.2,33.5,87.9Z"/>
  </g>
  <g>
    <rect class="st1" x="413.5" y="409.8" width="253" height="105.3" rx="4.7" ry="4.7"/>
    <path class="st0" d="M647.6,517.1h-215.3c-11.5,0-20.8-9.4-20.8-20.8v-67.6c0-11.5,9.4-20.8,20.8-20.8h215.3c11.5,0,20.8,9.4,20.8,20.8v67.6c0,11.5-9.3,20.8-20.8,20.8ZM432.4,411.8c-9.3,0-16.9,7.6-16.9,16.9v67.6c0,9.3,7.6,16.9,16.9,16.9h215.3c9.3,0,16.9-7.6,16.9-16.9v-67.6c0-9.3-7.6-16.9-16.9-16.9h-215.3Z"/>
  </g>
  <rect class="st0" x="511.6" y="562.2" width="56.8" height="64.9"/>
  <g>
    <ellipse class="st0" cx="477.8" cy="462.4" rx="31.4" ry="44.8"/>
    <ellipse class="st0" cx="602.2" cy="462.4" rx="31.4" ry="44.8"/>
  </g>
  <g>
    <rect class="st0" x="509.6" y="562.2" width="4" height="64.9"/>
    <rect class="st0" x="566.4" y="562.2" width="4" height="64.9"/>
  </g>
  <g>
    <path class="st8" d="M711.1,628.1h-342.1l3,5.6c-3.9,27.8-10.7,106.7,30.1,186.5,43.5,85,112.2,114.5,135.2,122.6l.9,1.6c.6-.2,1.2-.4,1.9-.6.7.2,1.4.5,1.9.6l.9-1.6c23-8.1,91.7-37.6,135.2-122.6,40.8-79.8,34-158.7,30.1-186.5l3-5.6Z"/>
    <path class="st0" d="M542.9,946.9l-2.9-1-2.7.9-1.5-2.3c-27.3-9.8-93.4-41-135.6-123.4-38.4-75.1-35.6-149.2-30.4-187l-4.3-8h348.8l-4.3,8c5.2,37.9,8,111.9-30.4,187-42.1,82.4-108.3,113.6-135.6,123.4l-1.3,2.4ZM540,941.8l1,.3.4-.8.7-.3c26.4-9.3,92.2-39.9,134.1-121.7,38.1-74.5,35.1-148.1,29.9-185.3v-.6c0,0,1.7-3.3,1.7-3.3h-335.5l1.7,3.3v.6c-5.3,37.2-8.3,110.8,29.8,185.3,41.9,81.8,107.7,112.3,134.1,121.7l.7.3.4.8,1-.3Z"/>
  </g>
</svg>