<svg width="1080" height="1080" viewBox="0 0 1080 1080" fill="none" xmlns="http://www.w3.org/2000/svg">
<path d="M553.4 602.4C550.8 608 545.2 622.2 547.8 640.5C550.1 656.7 557.7 667.8 561.5 672.7C546.5 673.9 531.6 675.2 516.6 676.4C522.6 646.8 517.1 631.2 510.4 622.4C506.3 617 496.7 607.4 498.4 605.3C499.2 604.3 501.9 605.3 502.6 605.5C508.9 607.6 522.7 608 553.3 602.4H553.4Z" fill="#1A0145"/>
<path d="M519.1 342.3C525.9 342.3 562.9 342.6 599.6 366C618.7 378.2 630.5 392 636.8 399.7C646 410.7 653.8 420.3 658 435.2C660.8 445.1 660.6 452.5 660.4 463.9C660.1 476 659.6 495.4 650.5 518.3C648 524.8 640.9 541.3 627.1 557.4C589.9 600.9 534.5 605.5 528.6 605.9C480.3 609.2 438.8 587.6 421.7 568.9C418.7 565.7 408.2 553.5 397 539.5C384 523.4 387.6 526.8 379.5 517C363.9 498.2 356.7 493.8 357.5 484.5C357.8 481.2 359.3 475.2 363 469.5C366.5 464.2 370.5 464.4 373.5 459C375.8 454.8 375.2 452.3 376.2 446.8C376.6 444.7 377.5 440.8 384.9 427.4C390.4 417.5 396.6 407.4 399.7 403.2C410 389.4 452.4 342.5 519.1 342.1V342.3Z" fill="white"/>
<path d="M387.2 514.7C375.1 514.7 364.3 509 359.1 499.7C354.9 492.2 354.3 482.5 357.5 473.7C360.2 466.2 365.4 460.4 371.8 457.7C388.6 390.5 447.5 342.4 515.2 340.4C516.6 340.4 518 340.4 519.5 340.4C579.6 340.4 635.6 377.8 659.9 434.5L660.2 435.1L660 435.8C655.4 451.8 647.8 465.6 637.3 476.9C610.7 505.5 574.2 508.6 547.5 510.8C504.7 514.4 460.2 505.3 418.7 484.6L418.3 484.3L398.3 466.3C397.9 466 385.9 456.7 374.3 461C368.6 463.1 363.8 468.2 361.4 475.1C358.6 482.9 359.1 491.4 362.7 497.9C367.3 505.9 376.7 510.9 387.4 510.9C398.1 510.9 387.5 510.9 387.6 510.9V514.8C387.6 514.8 387.5 514.8 387.4 514.8L387.2 514.7ZM420.4 481.2C461.2 501.5 505 510.4 546.9 506.8C572.9 504.6 608.6 501.6 634.2 474.1C644.1 463.4 651.4 450.4 655.9 435.3C631.5 379.1 575.1 342.5 515.2 344.3C450 346.2 393.3 392.1 376.1 456.4C388.2 454 399.2 462.3 400.5 463.3L420.4 481.2Z" fill="#1A0145"/>
<path d="M495.9 475.5C474.5 485.3 452.7 473 451.3 472.2C435.4 462.9 423.7 444.2 426 424.3C429 398.6 454 382.6 475.9 381C479 380.8 502.9 379.4 516.5 396.3C534.8 419.1 523.9 462.6 495.9 475.5Z" fill="#1A0145"/>
<path d="M478.2 480.2C463.4 480.2 451.5 473.4 450.8 473C433.2 462.7 422.8 443 425 424.1C428.1 397.6 453.5 381.6 475.8 380C480.4 379.7 503.8 378.9 517.2 395.7C525.8 406.4 528.6 422.4 524.8 438.7C520.7 456 510 470.1 496.2 476.5C490 479.3 483.9 480.3 478.1 480.3L478.2 480.2ZM479.5 381.8C477.9 381.8 476.7 381.8 476 381.9C454.5 383.4 430 398.8 427 424.3C424.5 445.3 437.7 463 451.8 471.3C452.7 471.8 474.4 484.3 495.5 474.6C508.8 468.5 519 454.9 523 438.2C526.7 422.6 524 407.1 515.8 396.9C505 383.5 487.5 381.8 479.5 381.8Z" fill="#1A0145"/>
<path d="M619.7 452.8C618 454.6 611.4 461.3 602.4 460.8C588.2 460 579.4 442 577.1 430C576.6 427.3 572.4 405.8 584.4 398.2C595 391.5 611.6 399.8 619.7 410.2C629.1 422.4 629.9 441.8 619.7 452.8Z" fill="#1A0145"/>
<path d="M603.3 461.8C603 461.8 602.6 461.8 602.3 461.8C587.4 461 578.5 442.5 576.1 430.2C575 424.4 572.2 404.7 583.9 397.4C594.7 390.6 611.8 398.4 620.5 409.6C630.7 422.8 630.6 442.5 620.5 453.5C618.1 456.1 611.9 461.8 603.4 461.8H603.3ZM593.4 396.8C590.4 396.8 587.5 397.5 585 399.1C574.4 405.8 577 424.3 578.1 429.9C580.3 441.1 588.8 459.2 602.5 459.9C610.8 460.3 617.3 454.1 619 452.2C628.4 442 628.4 423.1 619 410.9C612.9 403 602.5 396.9 593.4 396.9V396.8Z" fill="#1A0145"/>
<path d="M518.8 608.2C460.3 608.2 404.5 571.2 377.6 513.6L381.1 511.9C408.8 571.3 468 608.2 528.3 603.9C577.1 600.4 622.5 571 643.9 529.1C661.9 493.8 659.2 458.8 656 441.1L659.8 440.4C663.1 458.6 665.8 494.5 647.3 530.8C625.3 574 578.7 604.2 528.5 607.8C525.2 608 521.9 608.2 518.7 608.2H518.8Z" fill="#1A0145"/>
<path d="M448.4 766.5C440.4 743.7 440.4 731.2 444.4 720.6C457.8 685 513.6 677.9 538.9 674.7C573.9 670.2 609.8 666 632.1 689.3C656.2 714.6 647.4 756.2 641.7 783.2C638.4 798.9 620.2 885.1 570.2 894.3C514.7 904.6 464.4 811.9 448.4 766.5Z" fill="white"/>
<path d="M561.5 897.1C505.3 897.1 459 802.3 446.6 767.1C439.1 745.9 438 732.2 442.6 719.8C456.4 683.1 512 676 538.7 672.6C572.3 668.3 610.3 663.5 633.6 687.8C658.4 713.8 649.6 755.7 643.7 783.4C635.5 822 615.2 887.9 570.6 896.1C567.5 896.7 564.5 896.9 561.5 896.9V897.1ZM450.3 765.8C466.3 811.4 516.7 902.2 569.9 892.4C600.9 886.7 626.3 846.7 639.8 782.8C645.5 755.8 654.1 715.2 630.7 690.6C608.8 667.7 573.4 672.2 539.2 676.5C515.3 679.5 459.2 686.7 446.3 721.2C442 732.6 443.2 745.5 450.3 765.8Z" fill="#1A0145"/>
<path d="M406 754.7C403.7 754.1 388.7 750.7 376.8 760.1C366.3 768.4 360.7 784.6 366 790.4C371.3 796.3 388.1 792 397.4 782.3C407.5 771.8 406.3 757.4 406 754.7Z" fill="white"/>
<path d="M373.8 795C373.8 795 373.6 795 373.5 795C369.6 795 366.5 793.8 364.6 791.7C362.7 789.6 361.8 786.4 362.1 782.4C362.8 774.1 368.3 764.3 375.6 758.6C387.6 749.2 402.3 751.8 406.5 752.8L407.8 753.1V754.5C408.4 758.6 408.9 773 398.8 783.6C392.4 790.3 382.1 795 373.8 795ZM396.8 755.6C391.3 755.6 384.2 756.8 378.1 761.7C370.9 767.4 366.6 776.6 366.1 782.8C365.9 785.6 366.4 787.8 367.6 789.1C368.8 790.4 370.9 791.1 373.7 791.1C379.9 791.1 389.6 787.7 396.1 780.9C404.2 772.4 404.6 761.2 404.3 756.3C402.5 756 399.9 755.6 396.9 755.6H396.8Z" fill="#1A0145"/>
<path d="M691.4 723.5C693.7 722.9 708.7 719.5 720.6 728.9C731.1 737.2 736.7 753.4 731.4 759.2C726.1 765.1 709.3 760.8 700 751.1C689.9 740.6 691.1 726.2 691.4 723.5Z" fill="white"/>
<path d="M723.7 763.8C715.4 763.8 705.1 759.2 698.7 752.4C688.5 741.8 689.1 727.4 689.5 723.3V721.9C689.6 721.9 691 721.6 691 721.6C695.2 720.6 709.9 717.9 721.9 727.4C729.2 733.1 734.7 742.9 735.4 751.2C735.7 755.2 734.9 758.4 732.9 760.5C731 762.6 727.9 763.8 724 763.8H723.7ZM693.3 725.1C693 730 693.4 741.3 701.5 749.7C707.9 756.4 717.5 759.9 723.7 759.9H723.9C726.7 759.9 728.8 759.2 730 757.9C731.2 756.6 731.7 754.4 731.5 751.6C731 745.4 726.7 736.2 719.5 730.5C709.9 722.9 697.9 724.3 693.4 725.2L693.3 725.1Z" fill="#1A0145"/>
<path d="M498.2 344.1H494.3V322.3H465.3V297.2L446.5 291.3L420.6 318.8L391.4 309.8V282.1L369.3 279.2L359.2 302.5L355.6 300.9L366.9 275L395.3 278.7V306.9L419.4 314.4L445.4 286.8L469.2 294.3V318.4H498.2V344.1Z" fill="#1A0145"/>
<path d="M639.3 201.2C644.105 201.2 648 197.305 648 192.5C648 187.695 644.105 183.8 639.3 183.8C634.495 183.8 630.6 187.695 630.6 192.5C630.6 197.305 634.495 201.2 639.3 201.2Z" fill="#1A0145"/>
<path d="M639.3 202.2C634 202.2 629.7 197.9 629.7 192.6C629.7 187.3 634 183 639.3 183C644.6 183 648.9 187.3 648.9 192.6C648.9 197.9 644.6 202.2 639.3 202.2ZM639.3 184.9C635.1 184.9 631.6 188.3 631.6 192.6C631.6 196.9 635 200.3 639.3 200.3C643.6 200.3 647 196.9 647 192.6C647 188.3 643.6 184.9 639.3 184.9Z" fill="#1A0145"/>
<path d="M354.2 319.3C359.005 319.3 362.9 315.405 362.9 310.6C362.9 305.795 359.005 301.9 354.2 301.9C349.395 301.9 345.5 305.795 345.5 310.6C345.5 315.405 349.395 319.3 354.2 319.3Z" fill="#1A0145"/>
<path d="M354.2 320.2C348.9 320.2 344.6 315.9 344.6 310.6C344.6 305.3 348.9 301 354.2 301C359.5 301 363.8 305.3 363.8 310.6C363.8 315.9 359.5 320.2 354.2 320.2ZM354.2 302.9C350 302.9 346.5 306.3 346.5 310.6C346.5 314.9 349.9 318.3 354.2 318.3C358.5 318.3 361.9 314.9 361.9 310.6C361.9 306.3 358.5 302.9 354.2 302.9Z" fill="#1A0145"/>
<path d="M547.3 344.6H543.4V320.4H566V289.8H595.9L593.2 314.5L610.4 316V289.8H625.1V263.7H606.2L610.6 226.5H630.8L637.4 200.7L641.2 201.7L633.9 230.4H614.1L610.6 259.8H629V293.7H614.3V320.3L588.9 318.1L591.6 293.7H569.9V324.3H547.3V344.6Z" fill="#1A0145"/>
<path d="M518 675.6L514.3 674.5C517.3 664.7 517.9 654.2 516.2 644.3C512.9 624.7 501.4 611.8 494.8 605.8L497.4 602.9C504.3 609.2 516.4 622.9 520 643.6C521.8 654.1 521.1 665.2 517.9 675.6H518Z" fill="#1A0145"/>
<path d="M560 672.4C555.1 666.5 548.8 656.7 546.3 643.4C542.8 624.5 548.8 609.1 552.7 601.5L556.2 603.3C552.5 610.4 546.8 624.9 550.2 642.6C552.6 655.1 558.5 664.3 563.1 669.9L560.1 672.4H560Z" fill="#1A0145"/>
<mask id="mask0_210_6272" style="mask-type:luminance" maskUnits="userSpaceOnUse" x="551" y="738" width="38" height="32">
<path d="M556.299 740.055L552.023 746.094C550.81 747.807 551.216 750.179 552.928 751.392L578.147 769.247C579.86 770.46 582.232 770.055 583.444 768.342L587.72 762.302C588.933 760.59 588.528 758.218 586.815 757.005L561.596 739.149C559.884 737.937 557.512 738.342 556.299 740.055Z" fill="white"/>
</mask>
<g mask="url(#mask0_210_6272)">
<path d="M556.6 739.3L551.6 746.4L550.6 740.4L556.6 739.3Z" fill="#7A01FF"/>
<path d="M557 739.3L551.7 746.9L551.6 746.4L556.6 739.3H557Z" fill="#7A01FF"/>
<path d="M557.4 739.2L551.7 747.3V746.9L557 739.3L557.4 739.2Z" fill="#7B01FE"/>
<path d="M557.8 739.1L551.8 747.7L551.7 747.3L557.4 739.2L557.8 739.1Z" fill="#7C02FE"/>
<path d="M558.2 739.1L551.9 748.1L551.8 747.7L557.8 739.1H558.2Z" fill="#7D02FD"/>
<path d="M558.7 739L551.9 748.5V748.1L558.2 739.1L558.7 739Z" fill="#7E02FD"/>
<path d="M559.1 738.9L552 748.9L551.9 748.5L558.7 739L559.1 738.9Z" fill="#7F03FC"/>
<path d="M559.5 738.9L552.1 749.3L552 748.9L559.1 738.9H559.5Z" fill="#8003FC"/>
<path d="M559.9 738.8L552.1 749.7V749.3L559.5 738.9L559.9 738.8Z" fill="#8103FB"/>
<path d="M560.3 738.7L552.2 750.1L552.1 749.7L559.9 738.8L560.3 738.7Z" fill="#8203FB"/>
<path d="M560.7 738.6L552.3 750.5L552.2 750.1L560.3 738.7L560.7 738.6Z" fill="#8304FA"/>
<path d="M561.1 738.6L552.4 750.9L552.3 750.5L560.7 738.6H561.1Z" fill="#8404FA"/>
<path d="M561.5 738.5L552.4 751.3V750.9L561.1 738.6L561.5 738.5Z" fill="#8504F9"/>
<path d="M561.9 738.4L552.5 751.7L552.4 751.3L561.5 738.5L561.9 738.4Z" fill="#8605F9"/>
<path d="M562.3 738.4L552.6 752.1L552.5 751.7L561.9 738.4H562.3Z" fill="#8705F8"/>
<path d="M562.4 738.3L562.6 738.5L552.7 752.4L552.6 752.3V752.1L562.3 738.4L562.4 738.3Z" fill="#8805F8"/>
<path d="M562.647 738.575L552.766 752.531L553.011 752.704L562.892 738.748L562.647 738.575Z" fill="#8906F7"/>
<path d="M562.844 738.769L552.963 752.725L553.208 752.899L563.089 738.943L562.844 738.769Z" fill="#8A06F7"/>
<path d="M563.123 738.922L553.242 752.878L553.487 753.051L563.368 739.095L563.123 738.922Z" fill="#8B06F6"/>
<path d="M563.36 739.092L553.479 753.048L553.723 753.222L563.605 739.266L563.36 739.092Z" fill="#8C06F6"/>
<path d="M563.557 739.187L553.676 753.143L553.921 753.316L563.802 739.36L563.557 739.187Z" fill="#8D07F5"/>
<path d="M563.894 739.358L554.012 753.314L554.257 753.487L564.139 739.531L563.894 739.358Z" fill="#8E07F5"/>
<path d="M564.073 739.61L554.191 753.566L554.436 753.739L564.317 739.783L564.073 739.61Z" fill="#8F07F4"/>
<path d="M564.27 739.705L554.388 753.661L554.633 753.834L564.515 739.878L564.27 739.705Z" fill="#9008F4"/>
<path d="M564.506 739.875L554.625 753.831L554.87 754.005L564.751 740.049L564.506 739.875Z" fill="#9108F3"/>
<path d="M564.785 740.128L554.904 754.084L555.149 754.257L565.03 740.301L564.785 740.128Z" fill="#9208F3"/>
<path d="M564.982 740.222L555.101 754.178L555.346 754.352L565.227 740.396L564.982 740.222Z" fill="#9309F2"/>
<path d="M565.219 740.393L555.337 754.349L555.582 754.522L565.464 740.566L565.219 740.393Z" fill="#9409F2"/>
<path d="M565.498 740.645L555.616 754.601L555.861 754.775L565.742 740.819L565.498 740.645Z" fill="#9509F1"/>
<path d="M565.753 740.658L555.871 754.614L556.116 754.788L565.998 740.832L565.753 740.658Z" fill="#960AF0"/>
<path d="M565.931 740.911L556.05 754.867L556.295 755.04L566.176 741.084L565.931 740.911Z" fill="#970AF0"/>
<path d="M566.21 741.163L556.329 755.119L556.574 755.292L566.455 741.336L566.21 741.163Z" fill="#980AEF"/>
<path d="M566.447 741.234L556.565 755.19L556.81 755.363L566.692 741.407L566.447 741.234Z" fill="#990AEF"/>
<path d="M566.644 741.428L556.763 755.384L557.008 755.558L566.889 741.602L566.644 741.428Z" fill="#9A0BEE"/>
<path d="M566.981 741.599L557.099 755.555L557.344 755.728L567.225 741.772L566.981 741.599Z" fill="#9B0BEE"/>
<path d="M567.159 741.751L557.278 755.707L557.523 755.881L567.404 741.925L567.159 741.751Z" fill="#9C0BED"/>
<path d="M567.356 741.946L557.475 755.902L557.72 756.075L567.601 742.119L567.356 741.946Z" fill="#9D0CED"/>
<path d="M567.693 742.117L557.812 756.073L558.057 756.246L567.938 742.29L567.693 742.117Z" fill="#9E0CEC"/>
<path d="M567.872 742.269L557.991 756.225L558.236 756.398L568.117 742.442L567.872 742.269Z" fill="#9F0CEC"/>
<path d="M568.069 742.464L558.188 756.419L558.433 756.593L568.314 742.637L568.069 742.464Z" fill="#A00DEB"/>
<path d="M568.406 742.634L558.524 756.59L558.769 756.764L568.651 742.808L568.406 742.634Z" fill="#A10DEB"/>
<path d="M568.584 742.786L558.703 756.742L558.948 756.916L568.829 742.96L568.584 742.786Z" fill="#A20DEA"/>
<path d="M568.839 742.9L558.958 756.855L559.203 757.029L569.084 743.073L568.839 742.9Z" fill="#A30EEA"/>
<path d="M569.018 743.152L559.137 757.108L559.382 757.281L569.263 743.325L569.018 743.152Z" fill="#A40EE9"/>
<path d="M569.297 743.304L559.416 757.26L559.661 757.434L569.542 743.478L569.297 743.304Z" fill="#A50EE9"/>
<path d="M569.552 743.417L559.671 757.373L559.915 757.546L569.797 743.59L569.552 743.417Z" fill="#A60EE8"/>
<path d="M569.731 743.67L559.85 757.625L560.094 757.799L569.976 743.843L569.731 743.67Z" fill="#A70FE8"/>
<path d="M570.01 743.822L560.128 757.778L560.373 757.951L570.255 743.995L570.01 743.822Z" fill="#A80FE7"/>
<path d="M570.346 743.993L560.465 757.948L560.71 758.122L570.591 744.166L570.346 743.993Z" fill="#A90FE7"/>
<path d="M570.443 744.087L560.562 758.043L560.807 758.217L570.688 744.261L570.443 744.087Z" fill="#AA10E6"/>
<path d="M570.78 744.258L560.899 758.214L561.144 758.387L571.025 744.431L570.78 744.258Z" fill="#AB10E6"/>
<path d="M570.959 744.51L561.077 758.466L561.322 758.64L571.204 744.684L570.959 744.51Z" fill="#AC10E5"/>
<path d="M571.156 744.605L561.275 758.561L561.519 758.734L571.401 744.778L571.156 744.605Z" fill="#AD11E5"/>
<path d="M571.493 744.775L561.611 758.731L561.856 758.905L571.738 744.949L571.493 744.775Z" fill="#AE11E4"/>
<path d="M571.671 745.028L561.79 758.984L562.035 759.157L571.916 745.201L571.671 745.028Z" fill="#AF11E3"/>
<path d="M571.926 745.041L562.045 758.997L562.29 759.17L572.171 745.214L571.926 745.041Z" fill="#B011E3"/>
<path d="M572.205 745.293L562.324 759.249L562.569 759.422L572.45 745.466L572.205 745.293Z" fill="#B112E2"/>
<path d="M572.384 745.546L562.502 759.501L562.747 759.675L572.629 745.719L572.384 745.546Z" fill="#B212E2"/>
<path d="M572.639 745.558L562.758 759.514L563.002 759.688L572.884 745.732L572.639 745.558Z" fill="#B312E1"/>
<path d="M572.818 745.811L562.936 759.767L563.181 759.94L573.063 745.984L572.818 745.811Z" fill="#B413E1"/>
<path d="M573.096 746.063L563.215 760.019L563.46 760.192L573.341 746.236L573.096 746.063Z" fill="#B513E0"/>
<path d="M573.352 746.076L563.47 760.032L563.715 760.205L573.596 746.249L573.352 746.076Z" fill="#B613E0"/>
<path d="M573.53 746.328L563.649 760.284L563.894 760.458L573.775 746.502L573.53 746.328Z" fill="#B714DF"/>
<path d="M573.867 746.499L563.986 760.455L564.23 760.628L574.112 746.672L573.867 746.499Z" fill="#B814DF"/>
<path d="M574.064 746.594L564.183 760.55L564.427 760.723L574.309 746.767L574.064 746.594Z" fill="#B914DE"/>
<path d="M574.243 746.846L564.362 760.802L564.606 760.975L574.488 747.019L574.243 746.846Z" fill="#BA15DE"/>
<path d="M574.579 747.017L564.698 760.973L564.943 761.146L574.824 747.19L574.579 747.017Z" fill="#BB15DD"/>
<path d="M574.858 747.169L564.977 761.125L565.222 761.298L575.103 747.342L574.858 747.169Z" fill="#BD15DD"/>
<path d="M574.955 747.364L565.074 761.32L565.319 761.493L575.2 747.537L574.955 747.364Z" fill="#BE15DC"/>
<path d="M575.292 747.534L565.411 761.49L565.655 761.664L575.537 747.708L575.292 747.534Z" fill="#BF16DC"/>
<path d="M575.471 747.687L565.589 761.643L565.834 761.816L575.716 747.86L575.471 747.687Z" fill="#C016DB"/>
<path d="M575.726 747.8L565.844 761.756L566.089 761.929L575.971 747.973L575.726 747.8Z" fill="#C116DB"/>
<path d="M576.005 748.052L566.123 762.008L566.368 762.181L576.25 748.225L576.005 748.052Z" fill="#C217DA"/>
<path d="M576.183 748.204L566.302 762.16L566.547 762.334L576.428 748.378L576.183 748.204Z" fill="#C317DA"/>
<path d="M576.438 748.317L566.557 762.273L566.802 762.447L576.683 748.491L576.438 748.317Z" fill="#C417D9"/>
<path d="M576.717 748.57L566.836 762.526L567.081 762.699L576.962 748.743L576.717 748.57Z" fill="#C518D9"/>
<path d="M576.954 748.64L567.072 762.596L567.317 762.77L577.198 748.814L576.954 748.64Z" fill="#C618D8"/>
<path d="M577.151 748.835L567.27 762.791L567.514 762.964L577.396 749.008L577.151 748.835Z" fill="#C718D8"/>
<path d="M577.33 749.087L567.448 763.043L567.693 763.217L577.574 749.261L577.33 749.087Z" fill="#C819D7"/>
<path d="M577.666 749.158L567.785 763.114L568.03 763.287L577.911 749.331L577.666 749.158Z" fill="#C919D7"/>
<path d="M577.864 749.353L567.982 763.309L568.227 763.482L578.108 749.526L577.864 749.353Z" fill="#CA19D6"/>
<path d="M578.042 749.505L568.161 763.461L568.406 763.634L578.287 749.678L578.042 749.505Z" fill="#CB19D5"/>
<path d="M578.379 749.676L568.498 763.632L568.742 763.805L578.624 749.849L578.379 749.676Z" fill="#CC1AD5"/>
<path d="M578.658 749.928L568.776 763.884L569.021 764.057L578.903 750.101L578.658 749.928Z" fill="#CD1AD4"/>
<path d="M578.813 749.941L568.931 763.897L569.176 764.07L579.057 750.114L578.813 749.941Z" fill="#CE1AD4"/>
<path d="M579.091 750.193L569.21 764.149L569.455 764.323L579.336 750.367L579.091 750.193Z" fill="#CF1BD3"/>
<path d="M579.27 750.446L569.389 764.402L569.634 764.575L579.515 750.619L579.27 750.446Z" fill="#D01BD3"/>
<path d="M579.525 750.459L569.644 764.415L569.889 764.588L579.77 750.632L579.525 750.459Z" fill="#D11BD2"/>
<path d="M579.804 750.711L569.923 764.667L570.167 764.84L580.049 750.884L579.804 750.711Z" fill="#D21CD2"/>
<path d="M579.983 750.963L570.102 764.919L570.346 765.093L580.228 751.137L579.983 750.963Z" fill="#D31CD1"/>
<path d="M580.238 750.976L570.356 764.932L570.601 765.105L580.483 751.15L580.238 750.976Z" fill="#D41CD1"/>
<path d="M580.517 751.229L570.635 765.185L570.88 765.358L580.761 751.402L580.517 751.229Z" fill="#D51CD0"/>
<path d="M580.753 751.399L570.872 765.355L571.117 765.529L580.998 751.573L580.753 751.399Z" fill="#D61DD0"/>
<path d="M580.95 751.494L571.069 765.45L571.314 765.623L581.195 751.667L580.95 751.494Z" fill="#D71DCF"/>
<path d="M581.229 751.746L571.348 765.702L571.592 765.875L581.474 751.92L581.229 751.746Z" fill="#D81DCF"/>
<path d="M581.466 751.917L571.584 765.873L571.829 766.046L581.711 752.09L581.466 751.917Z" fill="#D91ECE"/>
<path d="M581.663 752.011L571.781 765.967L572.026 766.141L581.908 752.185L581.663 752.011Z" fill="#DA1ECE"/>
<path d="M581.899 752.182L572.018 766.138L572.263 766.312L582.144 752.356L581.899 752.182Z" fill="#DB1ECD"/>
<path d="M582.178 752.435L572.297 766.391L572.542 766.564L582.423 752.608L582.178 752.435Z" fill="#DC1FCD"/>
<path d="M582.375 752.529L572.494 766.485L572.739 766.658L582.62 752.703L582.375 752.529Z" fill="#DD1FCC"/>
<path d="M582.612 752.7L572.731 766.656L572.976 766.829L582.857 752.873L582.612 752.7Z" fill="#DE1FCC"/>
<path d="M582.891 752.952L573.01 766.908L573.254 767.082L583.136 753.126L582.891 752.952Z" fill="#DF20CB"/>
<path d="M583.17 753.105L573.288 767.061L573.533 767.234L583.415 753.278L583.17 753.105Z" fill="#E020CB"/>
<path d="M583.325 753.217L573.443 767.173L573.688 767.347L583.57 753.391L583.325 753.217Z" fill="#E120CA"/>
<path d="M583.604 753.47L573.722 767.426L573.967 767.599L583.848 753.643L583.604 753.47Z" fill="#E220CA"/>
<path d="M583.84 753.541L573.959 767.497L574.204 767.67L584.085 753.714L583.84 753.541Z" fill="#E321C9"/>
<path d="M584.037 753.735L574.156 767.691L574.401 767.864L584.282 753.908L584.037 753.735Z" fill="#E421C8"/>
<path d="M584.316 753.987L574.435 767.943L574.679 768.117L584.561 754.161L584.316 753.987Z" fill="#E521C8"/>
<path d="M584.553 754.058L574.671 768.014L574.916 768.188L584.798 754.232L584.553 754.058Z" fill="#E622C7"/>
<path d="M584.75 754.253L574.868 768.209L575.113 768.382L584.995 754.426L584.75 754.253Z" fill="#E722C7"/>
<path d="M585.086 754.323L575.205 768.279L575.45 768.453L585.331 754.497L585.086 754.323Z" fill="#E822C6"/>
<path d="M585.265 754.576L575.384 768.532L575.629 768.705L585.51 754.749L585.265 754.576Z" fill="#E923C6"/>
<path d="M585.462 754.77L575.581 768.726L575.826 768.9L585.707 754.944L585.462 754.77Z" fill="#EA23C5"/>
<path d="M585.699 754.841L575.818 768.797L576.062 768.97L585.944 755.015L585.699 754.841Z" fill="#EB23C5"/>
<path d="M585.978 755.093L576.096 769.049L576.341 769.223L586.223 755.267L585.978 755.093Z" fill="#EC24C4"/>
<path d="M586.175 755.288L576.293 769.244L576.538 769.417L586.42 755.461L586.175 755.288Z" fill="#ED24C4"/>
<path d="M586.412 755.359L576.53 769.315L576.775 769.488L586.656 755.532L586.412 755.359Z" fill="#EE24C3"/>
<path d="M586.69 755.611L576.809 769.567L577.054 769.74L586.935 755.785L586.69 755.611Z" fill="#EF24C3"/>
<path d="M586.9 755.6L587.1 755.8V755.9L577.3 769.7H577.2L577 769.6L586.9 755.6Z" fill="#F025C2"/>
<path d="M587.2 756.3L577.7 769.6L577.3 769.7L587.1 755.9L587.2 756.3Z" fill="#F125C2"/>
<path d="M587.2 756.7L578.1 769.5L577.7 769.6L587.2 756.3V756.7Z" fill="#F225C1"/>
<path d="M587.3 757.1L578.6 769.5H578.1L587.2 756.7L587.3 757.1Z" fill="#F326C1"/>
<path d="M587.4 757.5L579 769.4L578.6 769.5L587.3 757.1L587.4 757.5Z" fill="#F426C0"/>
<path d="M587.4 757.9L579.4 769.3L579 769.4L587.4 757.5V757.9Z" fill="#F526C0"/>
<path d="M587.5 758.3L579.8 769.3H579.4L587.4 757.9L587.5 758.3Z" fill="#F627BF"/>
<path d="M587.6 758.7L580.2 769.2L579.8 769.3L587.5 758.3L587.6 758.7Z" fill="#F727BF"/>
<path d="M587.6 759.1L580.6 769.1L580.2 769.2L587.6 758.7V759.1Z" fill="#F827BE"/>
<path d="M587.7 759.6L581 769L580.6 769.1L587.6 759.1L587.7 759.6Z" fill="#F927BE"/>
<path d="M587.8 760L581.4 769H581L587.7 759.6L587.8 760Z" fill="#FA28BD"/>
<path d="M587.8 760.4L581.8 768.9L581.4 769L587.8 760V760.4Z" fill="#FB28BD"/>
<path d="M587.9 760.8L582.2 768.8L581.8 768.9L587.8 760.4L587.9 760.8Z" fill="#FC28BC"/>
<path d="M588 761.2L582.6 768.8H582.2L587.9 760.8L588 761.2Z" fill="#FD29BC"/>
<path d="M588.1 761.6L583 768.7L582.6 768.8L588 761.2L588.1 761.6Z" fill="#FE29BB"/>
<path d="M583 768.7L588.1 761.6L589.1 767.7L583 768.7Z" fill="#FE29BB"/>
</g>
<mask id="mask1_210_6272" style="mask-type:luminance" maskUnits="userSpaceOnUse" x="556" y="752" width="33" height="38">
<path d="M575.432 753.793L557.577 779.011C556.364 780.724 556.769 783.096 558.482 784.308L564.522 788.585C566.234 789.797 568.606 789.392 569.819 787.679L587.675 762.46C588.887 760.748 588.482 758.376 586.769 757.163L580.73 752.887C579.017 751.674 576.645 752.08 575.432 753.793Z" fill="white"/>
</mask>
<g mask="url(#mask1_210_6272)">
<path d="M587.3 757.4L580.2 752.4L586.3 751.4L587.3 757.4Z" fill="#FE29BB"/>
<path d="M587.4 758L579.7 752.5L580.2 752.4L587.3 757.4L587.4 758Z" fill="#FE29BB"/>
<path d="M587.5 758.5L579.2 752.6L579.7 752.5L587.4 758L587.5 758.5Z" fill="#FE2ABB"/>
<path d="M587.6 759L578.6 752.7L579.2 752.6L587.5 758.5L587.6 759Z" fill="#FE2BBA"/>
<path d="M587.7 759.6L578.1 752.8L578.6 752.7L587.6 759L587.7 759.6Z" fill="#FE2CBA"/>
<path d="M587.8 760.1L577.5 752.9L578.1 752.8L587.7 759.6L587.8 760.1Z" fill="#FE2DBA"/>
<path d="M587.9 760.7L577 752.9H577.5L587.8 760.1L587.9 760.7Z" fill="#FE2EB9"/>
<path d="M588 761.2L576.4 753L577 752.9L587.9 760.7L588 761.2Z" fill="#FE2FB9"/>
<path d="M588.1 761.8L575.9 753.1L576.4 753L588 761.2L588.1 761.8Z" fill="#FE30B9"/>
<path d="M588.2 762.3L575.4 753.2L575.9 753.1L588.1 761.8L588.2 762.3Z" fill="#FE31B9"/>
<path d="M588.3 762.8L574.8 753.3L575.4 753.2L588.2 762.3L588.3 762.8Z" fill="#FE32B8"/>
<path d="M588.3 763.3L574.4 753.5V753.4L574.8 753.3L588.3 762.8V763.3Z" fill="#FE33B8"/>
<path d="M574.37 753.591L574.138 753.917L588.094 763.799L588.326 763.472L574.37 753.591Z" fill="#FE34B8"/>
<path d="M574.099 753.927L573.868 754.254L587.824 764.135L588.055 763.809L574.099 753.927Z" fill="#FE35B7"/>
<path d="M574.01 754.222L573.779 754.548L587.734 764.43L587.966 764.103L574.01 754.222Z" fill="#FE36B7"/>
<path d="M573.681 754.64L573.45 754.967L587.406 764.848L587.637 764.521L573.681 754.64Z" fill="#FE37B7"/>
<path d="M573.51 754.877L573.279 755.203L587.235 765.085L587.466 764.758L573.51 754.877Z" fill="#FE38B6"/>
<path d="M573.24 755.213L573.009 755.54L586.965 765.421L587.196 765.095L573.24 755.213Z" fill="#FE39B6"/>
<path d="M572.969 755.45L572.738 755.776L586.694 765.658L586.925 765.331L572.969 755.45Z" fill="#FE3AB6"/>
<path d="M572.74 755.868L572.509 756.195L586.465 766.076L586.696 765.75L572.74 755.868Z" fill="#FE3BB5"/>
<path d="M572.551 756.162L572.32 756.489L586.276 766.37L586.507 766.044L572.551 756.162Z" fill="#FE3CB5"/>
<path d="M572.381 756.499L572.15 756.825L586.106 766.707L586.337 766.38L572.381 756.499Z" fill="#FE3DB5"/>
<path d="M572.11 756.736L571.879 757.062L585.835 766.943L586.066 766.617L572.11 756.736Z" fill="#FE3EB5"/>
<path d="M571.882 757.154L571.65 757.48L585.606 767.362L585.837 767.035L571.882 757.154Z" fill="#FE3FB4"/>
<path d="M571.611 757.39L571.38 757.717L585.336 767.598L585.567 767.272L571.611 757.39Z" fill="#FE40B4"/>
<path d="M571.522 757.785L571.291 758.111L585.246 767.993L585.478 767.666L571.522 757.785Z" fill="#FE41B4"/>
<path d="M571.251 758.021L571.02 758.348L584.976 768.229L585.207 767.903L571.251 758.021Z" fill="#FE42B3"/>
<path d="M571.022 758.44L570.791 758.766L584.747 768.647L584.978 768.321L571.022 758.44Z" fill="#FE43B3"/>
<path d="M570.752 758.676L570.521 759.003L584.476 768.884L584.708 768.558L570.752 758.676Z" fill="#FE44B3"/>
<path d="M570.481 759.013L570.25 759.339L584.206 769.22L584.437 768.894L570.481 759.013Z" fill="#FE45B2"/>
<path d="M570.31 759.249L570.079 759.576L584.035 769.457L584.266 769.131L570.31 759.249Z" fill="#FE46B2"/>
<path d="M570.063 759.725L569.832 760.052L583.788 769.933L584.019 769.607L570.063 759.725Z" fill="#FE47B2"/>
<path d="M569.893 759.962L569.661 760.288L583.617 770.17L583.848 769.843L569.893 759.962Z" fill="#FE48B2"/>
<path d="M569.622 760.299L569.391 760.625L583.347 770.506L583.578 770.18L569.622 760.299Z" fill="#FE49B1"/>
<path d="M569.451 760.535L569.22 760.862L583.176 770.743L583.407 770.416L569.451 760.535Z" fill="#FE4AB1"/>
<path d="M569.123 760.953L568.891 761.28L582.847 771.161L583.078 770.835L569.123 760.953Z" fill="#FE4BB1"/>
<path d="M568.952 761.19L568.721 761.516L582.677 771.398L582.908 771.071L568.952 761.19Z" fill="#FE4CB0"/>
<path d="M568.763 761.584L568.531 761.911L582.487 771.792L582.719 771.466L568.763 761.584Z" fill="#FE4DB0"/>
<path d="M568.592 761.821L568.361 762.147L582.317 772.029L582.548 771.702L568.592 761.821Z" fill="#FE4EB0"/>
<path d="M568.263 762.239L568.032 762.565L581.988 772.447L582.219 772.12L568.263 762.239Z" fill="#FE4FAF"/>
<path d="M568.093 762.476L567.862 762.802L581.818 772.683L582.049 772.357L568.093 762.476Z" fill="#FE50AF"/>
<path d="M567.822 762.812L567.591 763.139L581.547 773.02L581.778 772.694L567.822 762.812Z" fill="#FE51AF"/>
<path d="M567.633 763.106L567.402 763.433L581.358 773.314L581.589 772.988L567.633 763.106Z" fill="#FE52AE"/>
<path d="M567.404 763.525L567.173 763.851L581.129 773.733L581.36 773.406L567.404 763.525Z" fill="#FE53AE"/>
<path d="M567.134 763.761L566.903 764.088L580.859 773.969L581.09 773.643L567.134 763.761Z" fill="#FE54AE"/>
<path d="M566.963 764.098L566.732 764.424L580.688 774.306L580.919 773.979L566.963 764.098Z" fill="#FE55AE"/>
<path d="M566.692 764.334L566.461 764.661L580.417 774.542L580.648 774.216L566.692 764.334Z" fill="#FE56AD"/>
<path d="M566.464 764.753L566.232 765.079L580.188 774.96L580.42 774.634L566.464 764.753Z" fill="#FE57AD"/>
<path d="M566.275 765.047L566.043 765.374L579.999 775.255L580.231 774.928L566.275 765.047Z" fill="#FE58AD"/>
<path d="M566.104 765.384L565.873 765.71L579.829 775.591L580.06 775.265L566.104 765.384Z" fill="#FE59AC"/>
<path d="M565.833 765.62L565.602 765.947L579.558 775.828L579.789 775.502L565.833 765.62Z" fill="#FF5BAC"/>
<path d="M565.605 766.038L565.374 766.365L579.329 776.246L579.561 775.92L565.605 766.038Z" fill="#FF5CAC"/>
<path d="M565.334 766.275L565.103 766.601L579.059 776.483L579.29 776.156L565.334 766.275Z" fill="#FF5DAB"/>
<path d="M565.163 766.612L564.932 766.938L578.888 776.819L579.119 776.493L565.163 766.612Z" fill="#FF5EAB"/>
<path d="M564.974 766.906L564.743 767.232L578.699 777.114L578.93 776.787L564.974 766.906Z" fill="#FF5FAB"/>
<path d="M564.645 767.324L564.414 767.651L578.37 777.532L578.601 777.206L564.645 767.324Z" fill="#FF60AA"/>
<path d="M564.475 767.561L564.244 767.887L578.2 777.769L578.431 777.442L564.475 767.561Z" fill="#FF61AA"/>
<path d="M564.204 767.897L563.973 768.224L577.929 778.105L578.16 777.779L564.204 767.897Z" fill="#FF62AA"/>
<path d="M564.033 768.134L563.802 768.46L577.758 778.342L577.989 778.015L564.033 768.134Z" fill="#FF63AA"/>
<path d="M563.705 768.552L563.474 768.879L577.43 778.76L577.661 778.433L563.705 768.552Z" fill="#FF64A9"/>
<path d="M563.616 768.846L563.385 769.173L577.341 779.054L577.572 778.728L563.616 768.846Z" fill="#FF65A9"/>
<path d="M563.345 769.183L563.114 769.51L577.07 779.391L577.301 779.064L563.345 769.183Z" fill="#FF66A9"/>
<path d="M563.174 769.42L562.943 769.746L576.899 779.627L577.13 779.301L563.174 769.42Z" fill="#FF67A8"/>
<path d="M562.846 769.838L562.615 770.164L576.57 780.046L576.802 779.719L562.846 769.838Z" fill="#FF68A8"/>
<path d="M562.675 770.074L562.444 770.401L576.4 780.282L576.631 779.956L562.675 770.074Z" fill="#FF69A8"/>
<path d="M562.486 770.469L562.255 770.795L576.211 780.677L576.442 780.35L562.486 770.469Z" fill="#FF6AA7"/>
<path d="M562.215 770.705L561.984 771.032L575.94 780.913L576.171 780.587L562.215 770.705Z" fill="#FF6BA7"/>
<path d="M562.044 771.042L561.813 771.368L575.769 781.25L576 780.923L562.044 771.042Z" fill="#FF6CA7"/>
<path d="M561.716 771.36L561.485 771.687L575.441 781.568L575.672 781.241L561.716 771.36Z" fill="#FF6DA6"/>
<path d="M561.545 771.697L561.314 772.023L575.27 781.905L575.501 781.578L561.545 771.697Z" fill="#FF6EA6"/>
<path d="M561.274 771.933L561.043 772.26L574.999 782.141L575.23 781.815L561.274 771.933Z" fill="#FF6FA6"/>
<path d="M561.185 772.328L560.954 772.654L574.91 782.535L575.141 782.209L561.185 772.328Z" fill="#FF70A6"/>
<path d="M560.857 772.646L560.625 772.972L574.581 782.854L574.813 782.527L560.857 772.646Z" fill="#FF71A5"/>
<path d="M560.686 772.982L560.455 773.309L574.411 783.19L574.642 782.864L560.686 772.982Z" fill="#FF72A5"/>
<path d="M560.415 773.219L560.184 773.546L574.14 783.427L574.371 783.1L560.415 773.219Z" fill="#FF73A5"/>
<path d="M560.245 773.556L560.013 773.882L573.969 783.763L574.2 783.437L560.245 773.556Z" fill="#FF74A4"/>
<path d="M559.916 773.874L559.685 774.2L573.641 784.082L573.872 783.755L559.916 773.874Z" fill="#FF75A4"/>
<path d="M559.827 774.268L559.596 774.595L573.552 784.476L573.783 784.15L559.827 774.268Z" fill="#FF76A4"/>
<path d="M559.556 774.505L559.325 774.831L573.281 784.713L573.512 784.386L559.556 774.505Z" fill="#FF77A3"/>
<path d="M559.285 774.841L559.054 775.168L573.01 785.049L573.241 784.723L559.285 774.841Z" fill="#FF78A3"/>
<path d="M559.057 775.16L558.826 775.486L572.782 785.367L573.013 785.041L559.057 775.16Z" fill="#FF79A3"/>
<path d="M558.786 775.496L558.555 775.823L572.511 785.704L572.742 785.378L558.786 775.496Z" fill="#FF7AA3"/>
<path d="M558.697 775.79L558.466 776.117L572.422 785.998L572.653 785.672L558.697 775.79Z" fill="#FF7BA2"/>
<path d="M558.426 776.127L558.195 776.454L572.151 786.335L572.382 786.009L558.426 776.127Z" fill="#FF7CA2"/>
<path d="M558.198 776.545L557.967 776.872L571.923 786.753L572.154 786.427L558.198 776.545Z" fill="#FF7DA2"/>
<path d="M557.927 776.782L557.696 777.108L571.652 786.99L571.883 786.663L557.927 776.782Z" fill="#FF7EA1"/>
<path d="M557.757 777.119L557.525 777.445L571.481 787.326L571.712 787L557.757 777.119Z" fill="#FF7FA1"/>
<path d="M557.486 777.355L557.254 777.682L571.21 787.563L571.441 787.236L557.486 777.355Z" fill="#FF80A1"/>
<path d="M557.339 777.831L557.108 778.157L571.064 788.039L571.295 787.712L557.339 777.831Z" fill="#FF81A0"/>
<path d="M571 787.8L570.9 787.9H570.5L557.1 778.4L557 778V777.9L571 787.8Z" fill="#FF82A0"/>
<path d="M570 788L557.2 778.9L557.1 778.4L570.5 787.9L570 788Z" fill="#FF83A0"/>
<path d="M569.4 788.1L557.2 779.5V778.9L570 788L569.4 788.1Z" fill="#FF849F"/>
<path d="M568.9 788.2L557.3 780L557.2 779.5L569.4 788.1L568.9 788.2Z" fill="#FF859F"/>
<path d="M568.3 788.3L557.4 780.6L557.3 780L568.9 788.2L568.3 788.3Z" fill="#FF869F"/>
<path d="M567.8 788.4L557.5 781.1L557.4 780.6L568.3 788.3L567.8 788.4Z" fill="#FF879F"/>
<path d="M567.3 788.5L557.6 781.7L557.5 781.1L567.8 788.4L567.3 788.5Z" fill="#FF889E"/>
<path d="M566.7 788.6L557.7 782.2L557.6 781.7L567.3 788.5L566.7 788.6Z" fill="#FF899E"/>
<path d="M566.2 788.7L557.8 782.7L557.7 782.2L566.7 788.6L566.2 788.7Z" fill="#FF8A9E"/>
<path d="M565.6 788.8L557.9 783.3L557.8 782.7L566.2 788.7L565.6 788.8Z" fill="#FF8B9D"/>
<path d="M565.1 788.9L558 783.8L557.9 783.3L565.6 788.8L565.1 788.9Z" fill="#FF8C9D"/>
<path d="M558 783.8L565.1 788.9L559 789.9L558 783.8Z" fill="#FF8C9D"/>
</g>
<mask id="mask2_210_6272" style="mask-type:luminance" maskUnits="userSpaceOnUse" x="516" y="761" width="38" height="33">
<path d="M521.716 763.16L517.44 769.2C516.227 770.912 516.632 773.284 518.345 774.497L543.564 792.353C545.277 793.565 547.648 793.16 548.861 791.447L553.137 785.408C554.35 783.695 553.945 781.323 552.232 780.11L527.013 762.255C525.3 761.042 522.929 761.447 521.716 763.16Z" fill="white"/>
</mask>
<g mask="url(#mask2_210_6272)">
<path d="M548.5 791.8L553.5 784.7L554.6 790.8L548.5 791.8Z" fill="#7A01FF"/>
<path d="M548.1 791.9L553.5 784.3V784.7L548.5 791.8L548.1 791.9Z" fill="#7A01FF"/>
<path d="M547.7 791.9L553.4 783.9L553.5 784.3L548.1 791.9H547.7Z" fill="#7B01FE"/>
<path d="M547.3 792L553.3 783.5L553.4 783.9L547.7 791.9L547.3 792Z" fill="#7C02FE"/>
<path d="M546.9 792.1L553.3 783.1V783.5L547.3 792L546.9 792.1Z" fill="#7D02FD"/>
<path d="M546.5 792.1L553.2 782.7L553.3 783.1L546.9 792.1H546.5Z" fill="#7E02FD"/>
<path d="M546.1 792.2L553.1 782.3L553.2 782.7L546.5 792.1L546.1 792.2Z" fill="#7F03FC"/>
<path d="M545.7 792.3L553 781.8L553.1 782.3L546.1 792.2L545.7 792.3Z" fill="#8003FC"/>
<path d="M545.3 792.4L553 781.4V781.8L545.7 792.3L545.3 792.4Z" fill="#8103FB"/>
<path d="M544.8 792.4L552.9 781L553 781.4L545.3 792.4H544.8Z" fill="#8203FB"/>
<path d="M544.4 792.5L552.8 780.6L552.9 781L544.8 792.4L544.4 792.5Z" fill="#8304FA"/>
<path d="M544 792.6L552.8 780.2V780.6L544.4 792.5L544 792.6Z" fill="#8404FA"/>
<path d="M543.6 792.6L552.7 779.8L552.8 780.2L544 792.6H543.6Z" fill="#8504F9"/>
<path d="M543.2 792.7L552.6 779.4L552.7 779.8L543.6 792.6L543.2 792.7Z" fill="#8605F9"/>
<path d="M542.8 792.8L552.6 779V779.4L543.2 792.7L542.8 792.8Z" fill="#8705F8"/>
<path d="M542.7 792.8L542.5 792.7L552.4 778.8L552.5 778.9L552.6 779L542.8 792.8H542.7Z" fill="#8805F8"/>
<path d="M552.207 778.716L542.326 792.672L542.571 792.846L552.452 778.89L552.207 778.716Z" fill="#8906F7"/>
<path d="M551.928 778.464L542.047 792.42L542.292 792.593L552.173 778.637L551.928 778.464Z" fill="#8A06F7"/>
<path d="M551.673 778.451L541.792 792.407L542.037 792.58L551.918 778.624L551.673 778.451Z" fill="#8B06F6"/>
<path d="M551.495 778.199L541.613 792.155L541.858 792.328L551.739 778.372L551.495 778.199Z" fill="#8C06F6"/>
<path d="M551.158 778.028L541.277 791.984L541.521 792.157L551.403 778.201L551.158 778.028Z" fill="#8D07F5"/>
<path d="M550.879 777.876L540.998 791.832L541.243 792.005L551.124 778.049L550.879 777.876Z" fill="#8E07F5"/>
<path d="M550.782 777.681L540.901 791.637L541.145 791.81L551.027 777.854L550.782 777.681Z" fill="#8F07F4"/>
<path d="M550.445 777.51L540.564 791.466L540.809 791.64L550.69 777.684L550.445 777.51Z" fill="#9008F4"/>
<path d="M550.267 777.358L540.385 791.314L540.63 791.487L550.511 777.531L550.267 777.358Z" fill="#9108F3"/>
<path d="M550.069 777.163L540.188 791.119L540.433 791.293L550.314 777.337L550.069 777.163Z" fill="#9208F3"/>
<path d="M549.733 776.993L539.852 790.948L540.096 791.122L549.978 777.166L549.733 776.993Z" fill="#9309F2"/>
<path d="M549.554 776.84L539.673 790.796L539.917 790.97L549.799 777.014L549.554 776.84Z" fill="#9409F2"/>
<path d="M549.299 776.727L539.418 790.683L539.663 790.857L549.544 776.901L549.299 776.727Z" fill="#9509F1"/>
<path d="M549.02 776.475L539.139 790.431L539.384 790.604L549.265 776.648L549.02 776.475Z" fill="#960AF0"/>
<path d="M548.841 776.323L538.96 790.279L539.205 790.452L549.086 776.496L548.841 776.323Z" fill="#970AF0"/>
<path d="M548.586 776.21L538.705 790.166L538.95 790.339L548.831 776.383L548.586 776.21Z" fill="#980AEF"/>
<path d="M548.408 775.957L538.526 789.913L538.771 790.087L548.653 776.131L548.408 775.957Z" fill="#990AEF"/>
<path d="M548.071 775.887L538.19 789.843L538.435 790.016L548.316 776.06L548.071 775.887Z" fill="#9A0BEE"/>
<path d="M547.874 775.692L537.993 789.648L538.238 789.821L548.119 775.865L547.874 775.692Z" fill="#9B0BEE"/>
<path d="M547.695 775.44L537.814 789.396L538.059 789.569L547.94 775.613L547.695 775.44Z" fill="#9C0BED"/>
<path d="M547.358 775.369L537.477 789.325L537.722 789.498L547.603 775.542L547.358 775.369Z" fill="#9D0CED"/>
<path d="M547.08 775.117L537.198 789.073L537.443 789.246L547.324 775.29L547.08 775.117Z" fill="#9E0CEC"/>
<path d="M546.982 774.922L537.101 788.878L537.346 789.052L547.227 775.096L546.982 774.922Z" fill="#9F0CEC"/>
<path d="M546.646 774.851L536.765 788.807L537.01 788.981L546.891 775.025L546.646 774.851Z" fill="#A00DEB"/>
<path d="M546.467 774.599L536.586 788.555L536.831 788.728L546.712 774.772L546.467 774.599Z" fill="#A10DEB"/>
<path d="M546.212 774.486L536.331 788.442L536.576 788.615L546.457 774.66L546.212 774.486Z" fill="#A20DEA"/>
<path d="M545.933 774.334L536.052 788.29L536.297 788.463L546.178 774.507L545.933 774.334Z" fill="#A30EEA"/>
<path d="M545.755 774.081L535.873 788.037L536.118 788.211L545.999 774.255L545.755 774.081Z" fill="#A40EE9"/>
<path d="M545.5 774.068L535.618 788.024L535.863 788.198L545.744 774.242L545.5 774.068Z" fill="#A50EE9"/>
<path d="M545.221 773.816L535.339 787.772L535.584 787.945L545.466 773.989L545.221 773.816Z" fill="#A60EE8"/>
<path d="M545.042 773.564L535.161 787.52L535.405 787.693L545.287 773.737L545.042 773.564Z" fill="#A70FE8"/>
<path d="M544.787 773.551L534.906 787.507L535.151 787.68L545.032 773.724L544.787 773.551Z" fill="#A80FE7"/>
<path d="M544.508 773.298L534.627 787.254L534.872 787.428L544.753 773.472L544.508 773.298Z" fill="#A90FE7"/>
<path d="M544.272 773.128L534.39 787.084L534.635 787.257L544.517 773.301L544.272 773.128Z" fill="#AA10E6"/>
<path d="M544.074 773.033L534.193 786.989L534.438 787.162L544.319 773.207L544.074 773.033Z" fill="#AB10E6"/>
<path d="M543.896 772.781L534.014 786.737L534.259 786.91L544.141 772.954L543.896 772.781Z" fill="#AC10E5"/>
<path d="M543.559 772.61L533.678 786.566L533.923 786.74L543.804 772.784L543.559 772.61Z" fill="#AD11E5"/>
<path d="M543.362 772.516L533.48 786.471L533.725 786.645L543.607 772.689L543.362 772.516Z" fill="#AE11E4"/>
<path d="M543.125 772.345L533.244 786.301L533.489 786.474L543.37 772.518L543.125 772.345Z" fill="#AF11E3"/>
<path d="M542.847 772.093L532.965 786.048L533.21 786.222L543.092 772.266L542.847 772.093Z" fill="#B011E3"/>
<path d="M542.568 771.94L532.687 785.896L532.931 786.069L542.813 772.113L542.568 771.94Z" fill="#B112E2"/>
<path d="M542.413 771.827L532.531 785.783L532.776 785.957L542.657 772.001L542.413 771.827Z" fill="#B212E2"/>
<path d="M542.134 771.575L532.253 785.531L532.498 785.704L542.379 771.748L542.134 771.575Z" fill="#B312E1"/>
<path d="M541.955 771.422L532.074 785.378L532.319 785.552L542.2 771.596L541.955 771.422Z" fill="#B413E1"/>
<path d="M541.7 771.31L531.819 785.266L532.064 785.439L541.945 771.483L541.7 771.31Z" fill="#B513E0"/>
<path d="M541.421 771.057L531.54 785.013L531.785 785.187L541.666 771.231L541.421 771.057Z" fill="#B613E0"/>
<path d="M541.185 770.986L531.303 784.942L531.548 785.116L541.43 771.16L541.185 770.986Z" fill="#B714DF"/>
<path d="M540.988 770.792L531.106 784.748L531.351 784.921L541.232 770.965L540.988 770.792Z" fill="#B814DF"/>
<path d="M540.709 770.54L530.828 784.496L531.072 784.669L540.954 770.713L540.709 770.54Z" fill="#B914DE"/>
<path d="M540.472 770.469L530.591 784.425L530.836 784.598L540.717 770.642L540.472 770.469Z" fill="#BA15DE"/>
<path d="M540.275 770.274L530.394 784.23L530.638 784.404L540.52 770.448L540.275 770.274Z" fill="#BB15DD"/>
<path d="M540.096 770.022L530.215 783.978L530.46 784.151L540.341 770.195L540.096 770.022Z" fill="#BD15DD"/>
<path d="M539.76 769.951L529.878 783.907L530.123 784.081L540.005 770.125L539.76 769.951Z" fill="#BE15DC"/>
<path d="M539.563 769.757L529.681 783.713L529.926 783.886L539.807 769.93L539.563 769.757Z" fill="#BF16DC"/>
<path d="M539.326 769.586L529.445 783.542L529.689 783.715L539.571 769.759L539.326 769.586Z" fill="#C016DB"/>
<path d="M539.047 769.434L529.166 783.39L529.411 783.563L539.292 769.607L539.047 769.434Z" fill="#C116DB"/>
<path d="M538.768 769.181L528.887 783.137L529.132 783.311L539.013 769.355L538.768 769.181Z" fill="#C217DA"/>
<path d="M538.613 769.068L528.732 783.024L528.977 783.198L538.858 769.242L538.613 769.068Z" fill="#C317DA"/>
<path d="M538.334 768.916L528.453 782.872L528.698 783.045L538.579 769.089L538.334 768.916Z" fill="#C417D9"/>
<path d="M537.998 768.745L528.117 782.701L528.362 782.875L538.243 768.919L537.998 768.745Z" fill="#C518D9"/>
<path d="M537.901 768.651L528.02 782.607L528.264 782.78L538.146 768.824L537.901 768.651Z" fill="#C618D8"/>
<path d="M537.622 768.398L527.741 782.354L527.986 782.528L537.867 768.572L537.622 768.398Z" fill="#C718D8"/>
<path d="M537.385 768.228L527.504 782.184L527.749 782.357L537.63 768.401L537.385 768.228Z" fill="#C819D7"/>
<path d="M537.188 768.133L527.307 782.089L527.552 782.262L537.433 768.306L537.188 768.133Z" fill="#C919D7"/>
<path d="M536.909 767.881L527.028 781.837L527.273 782.01L537.154 768.054L536.909 767.881Z" fill="#CA19D6"/>
<path d="M536.673 767.71L526.792 781.666L527.036 781.839L536.918 767.883L536.673 767.71Z" fill="#CB19D5"/>
<path d="M536.476 767.615L526.594 781.571L526.839 781.745L536.72 767.789L536.476 767.615Z" fill="#CC1AD5"/>
<path d="M536.139 767.445L526.258 781.401L526.503 781.574L536.384 767.618L536.139 767.445Z" fill="#CD1AD4"/>
<path d="M535.96 767.192L526.079 781.148L526.324 781.322L536.205 767.366L535.96 767.192Z" fill="#CE1AD4"/>
<path d="M535.763 767.098L525.882 781.054L526.127 781.227L536.008 767.271L535.763 767.098Z" fill="#CF1BD3"/>
<path d="M535.526 766.927L525.645 780.883L525.89 781.056L535.771 767.1L535.526 766.927Z" fill="#D01BD3"/>
<path d="M535.248 766.675L525.366 780.631L525.611 780.804L535.492 766.848L535.248 766.675Z" fill="#D11BD2"/>
<path d="M534.993 766.662L525.111 780.618L525.356 780.791L535.238 766.835L534.993 766.662Z" fill="#D21CD2"/>
<path d="M534.814 766.409L524.933 780.365L525.177 780.539L535.059 766.583L534.814 766.409Z" fill="#D31CD1"/>
<path d="M534.535 766.157L524.654 780.113L524.899 780.286L534.78 766.33L534.535 766.157Z" fill="#D41CD1"/>
<path d="M534.198 766.086L524.317 780.042L524.562 780.216L534.443 766.26L534.198 766.086Z" fill="#D51CD0"/>
<path d="M534.101 765.892L524.22 779.848L524.465 780.021L534.346 766.065L534.101 765.892Z" fill="#D61DD0"/>
<path d="M533.823 765.64L523.941 779.595L524.186 779.769L534.067 765.813L533.823 765.64Z" fill="#D71DCF"/>
<path d="M533.586 765.569L523.705 779.525L523.949 779.698L533.831 765.742L533.586 765.569Z" fill="#D81DCF"/>
<path d="M533.389 765.374L523.507 779.33L523.752 779.503L533.634 765.547L533.389 765.374Z" fill="#D91ECE"/>
<path d="M533.052 765.203L523.171 779.159L523.416 779.333L533.297 765.377L533.052 765.203Z" fill="#DA1ECE"/>
<path d="M532.873 765.051L522.992 779.007L523.237 779.18L533.118 765.224L532.873 765.051Z" fill="#DB1ECD"/>
<path d="M532.676 764.857L522.795 778.812L523.04 778.986L532.921 765.03L532.676 764.857Z" fill="#DC1FCD"/>
<path d="M532.34 764.686L522.458 778.642L522.703 778.815L532.584 764.859L532.34 764.686Z" fill="#DD1FCC"/>
<path d="M532.161 764.533L522.279 778.489L522.524 778.663L532.406 764.707L532.161 764.533Z" fill="#DE1FCC"/>
<path d="M531.964 764.339L522.082 778.295L522.327 778.468L532.208 764.512L531.964 764.339Z" fill="#DF20CB"/>
<path d="M531.627 764.168L521.746 778.124L521.99 778.297L531.872 764.342L531.627 764.168Z" fill="#E020CB"/>
<path d="M531.448 764.016L521.567 777.972L521.812 778.145L531.693 764.189L531.448 764.016Z" fill="#E120CA"/>
<path d="M531.193 763.903L521.312 777.859L521.557 778.032L531.438 764.076L531.193 763.903Z" fill="#E220CA"/>
<path d="M531.014 763.751L521.133 777.707L521.378 777.88L531.259 763.924L531.014 763.751Z" fill="#E321C9"/>
<path d="M530.736 763.498L520.854 777.454L521.099 777.627L530.98 763.672L530.736 763.498Z" fill="#E421C8"/>
<path d="M530.399 763.327L520.518 777.283L520.762 777.457L530.644 763.501L530.399 763.327Z" fill="#E521C8"/>
<path d="M530.302 763.233L520.421 777.189L520.665 777.362L530.547 763.406L530.302 763.233Z" fill="#E622C7"/>
<path d="M529.965 763.062L520.084 777.018L520.329 777.191L530.21 763.235L529.965 763.062Z" fill="#E722C7"/>
<path d="M529.687 762.81L519.805 776.766L520.05 776.939L529.931 762.983L529.687 762.81Z" fill="#E822C6"/>
<path d="M529.589 762.715L519.708 776.671L519.953 776.844L529.834 762.889L529.589 762.715Z" fill="#E923C6"/>
<path d="M529.253 762.545L519.371 776.5L519.616 776.674L529.498 762.718L529.253 762.545Z" fill="#EA23C5"/>
<path d="M529.074 762.292L519.193 776.248L519.438 776.421L529.319 762.465L529.074 762.292Z" fill="#EB23C5"/>
<path d="M528.877 762.198L518.995 776.154L519.24 776.327L529.122 762.371L528.877 762.198Z" fill="#EC24C4"/>
<path d="M528.54 762.027L518.659 775.983L518.904 776.156L528.785 762.2L528.54 762.027Z" fill="#ED24C4"/>
<path d="M528.361 761.775L518.48 775.73L518.725 775.904L528.606 761.948L528.361 761.775Z" fill="#EE24C3"/>
<path d="M528.106 761.762L518.225 775.718L518.47 775.891L528.351 761.935L528.106 761.762Z" fill="#EF24C3"/>
<path d="M518.2 775.5L518.1 775.4L518 775.2L527.8 761.5L527.9 761.4L528.1 761.6L518.2 775.5Z" fill="#F025C2"/>
<path d="M518 774.8L527.4 761.5H527.8L518 775.2V774.8Z" fill="#F125C2"/>
<path d="M517.9 774.4L527 761.6L527.4 761.5L518 774.8L517.9 774.4Z" fill="#F225C1"/>
<path d="M517.8 774L526.6 761.7L527 761.6L517.9 774.4L517.8 774Z" fill="#F326C1"/>
<path d="M517.8 773.6L526.2 761.7H526.6L517.8 774V773.6Z" fill="#F426C0"/>
<path d="M517.7 773.2L525.8 761.8L526.2 761.7L517.8 773.6L517.7 773.2Z" fill="#F526C0"/>
<path d="M517.6 772.8L525.4 761.9L525.8 761.8L517.7 773.2L517.6 772.8Z" fill="#F627BF"/>
<path d="M517.6 772.4L524.9 762L525.4 761.9L517.6 772.8V772.4Z" fill="#F727BF"/>
<path d="M517.5 772L524.5 762H524.9L517.6 772.4L517.5 772Z" fill="#F827BE"/>
<path d="M517.4 771.6L524.1 762.1L524.5 762L517.5 772L517.4 771.6Z" fill="#F927BE"/>
<path d="M517.3 771.2L523.7 762.2L524.1 762.1L517.4 771.6L517.3 771.2Z" fill="#FA28BD"/>
<path d="M517.3 770.8L523.3 762.2H523.7L517.3 771.2V770.8Z" fill="#FB28BD"/>
<path d="M517.2 770.4L522.9 762.3L523.3 762.2L517.3 770.8L517.2 770.4Z" fill="#FC28BC"/>
<path d="M517.1 770L522.5 762.4L522.9 762.3L517.2 770.4L517.1 770Z" fill="#FD29BC"/>
<path d="M517.1 769.5L522.1 762.4H522.5L517.1 770V769.5Z" fill="#FE29BB"/>
<path d="M522.1 762.4L517.1 769.5L516 763.5L522.1 762.4Z" fill="#FE29BB"/>
</g>
<mask id="mask3_210_6272" style="mask-type:luminance" maskUnits="userSpaceOnUse" x="516" y="742" width="33" height="38">
<path d="M535.26 743.665L517.404 768.884C516.191 770.596 516.597 772.968 518.309 774.181L524.349 778.457C526.062 779.67 528.433 779.264 529.646 777.552L547.502 752.333C548.714 750.62 548.309 748.248 546.596 747.036L540.557 742.76C538.844 741.547 536.472 741.952 535.26 743.665Z" fill="white"/>
</mask>
<g mask="url(#mask3_210_6272)">
<path d="M517.8 773.7L524.9 778.7L518.8 779.8L517.8 773.7Z" fill="#FE29BB"/>
<path d="M517.7 773.2L525.4 778.7H524.9L517.8 773.7L517.7 773.2Z" fill="#FE29BB"/>
<path d="M517.6 772.6L526 778.6L525.4 778.7L517.7 773.2L517.6 772.6Z" fill="#FE2ABB"/>
<path d="M517.5 772.1L526.5 778.5L526 778.6L517.6 772.6L517.5 772.1Z" fill="#FE2BBA"/>
<path d="M517.4 771.5L527.1 778.4L526.5 778.5L517.5 772.1L517.4 771.5Z" fill="#FE2CBA"/>
<path d="M517.3 771L527.6 778.3L527.1 778.4L517.4 771.5L517.3 771Z" fill="#FE2DBA"/>
<path d="M517.2 770.5L528.1 778.2L527.6 778.3L517.3 771L517.2 770.5Z" fill="#FE2EB9"/>
<path d="M517.1 769.9L528.7 778.1L528.1 778.2L517.2 770.5L517.1 769.9Z" fill="#FE2FB9"/>
<path d="M517 769.4L529.2 778L528.7 778.1L517.1 769.9L517 769.4Z" fill="#FE30B9"/>
<path d="M516.9 768.8L529.8 777.9L529.2 778L517 769.4L516.9 768.8Z" fill="#FE31B9"/>
<path d="M516.9 768.3L530.3 777.8L529.8 777.9L516.9 768.8V768.3Z" fill="#FE32B8"/>
<path d="M516.8 767.9V767.8L530.8 777.7H530.7L530.3 777.8L516.9 768.3L516.8 767.9Z" fill="#FE33B8"/>
<path d="M516.984 767.646L516.753 767.972L530.709 777.853L530.94 777.527L516.984 767.646Z" fill="#FE34B8"/>
<path d="M517.313 767.227L517.082 767.554L531.037 777.435L531.269 777.109L517.313 767.227Z" fill="#FE35B7"/>
<path d="M517.483 766.991L517.252 767.317L531.208 777.199L531.439 776.872L517.483 766.991Z" fill="#FE36B7"/>
<path d="M517.754 766.654L517.523 766.981L531.479 776.862L531.71 776.536L517.754 766.654Z" fill="#FE37B7"/>
<path d="M518.025 766.418L517.793 766.744L531.749 776.626L531.981 776.299L518.025 766.418Z" fill="#FE38B6"/>
<path d="M518.196 766.081L517.964 766.407L531.92 776.289L532.151 775.962L518.196 766.081Z" fill="#FE39B6"/>
<path d="M518.442 765.705L518.211 766.031L532.167 775.913L532.398 775.586L518.442 765.705Z" fill="#FE3AB6"/>
<path d="M518.613 765.368L518.382 765.695L532.338 775.576L532.569 775.25L518.613 765.368Z" fill="#FE3BB5"/>
<path d="M518.884 765.132L518.653 765.458L532.609 775.34L532.84 775.013L518.884 765.132Z" fill="#FE3CB5"/>
<path d="M519.055 764.795L518.823 765.122L532.779 775.003L533.011 774.677L519.055 764.795Z" fill="#FE3DB5"/>
<path d="M519.383 764.477L519.152 764.804L533.108 774.685L533.339 774.358L519.383 764.477Z" fill="#FE3EB5"/>
<path d="M519.554 764.14L519.323 764.467L533.279 774.348L533.51 774.022L519.554 764.14Z" fill="#FE3FB4"/>
<path d="M519.743 763.846L519.512 764.173L533.468 774.054L533.699 773.728L519.743 763.846Z" fill="#FE40B4"/>
<path d="M519.914 763.51L519.683 763.836L533.639 773.717L533.87 773.391L519.914 763.51Z" fill="#FE41B4"/>
<path d="M520.242 763.191L520.011 763.518L533.967 773.399L534.198 773.073L520.242 763.191Z" fill="#FE42B3"/>
<path d="M520.413 762.855L520.182 763.181L534.138 773.063L534.369 772.736L520.413 762.855Z" fill="#FE43B3"/>
<path d="M520.684 762.618L520.453 762.945L534.409 772.826L534.64 772.499L520.684 762.618Z" fill="#FE44B3"/>
<path d="M520.873 762.224L520.642 762.55L534.598 772.432L534.829 772.105L520.873 762.224Z" fill="#FE45B2"/>
<path d="M521.101 761.906L520.87 762.232L534.826 772.113L535.057 771.787L521.101 761.906Z" fill="#FE46B2"/>
<path d="M521.372 761.569L521.141 761.896L535.097 771.777L535.328 771.45L521.372 761.569Z" fill="#FE47B2"/>
<path d="M521.543 761.333L521.312 761.659L535.267 771.54L535.499 771.214L521.543 761.333Z" fill="#FE48B2"/>
<path d="M521.814 760.996L521.583 761.322L535.538 771.204L535.77 770.877L521.814 760.996Z" fill="#FE49B1"/>
<path d="M522.042 760.678L521.811 761.004L535.767 770.886L535.998 770.559L522.042 760.678Z" fill="#FE4AB1"/>
<path d="M522.231 760.283L522 760.61L535.956 770.491L536.187 770.165L522.231 760.283Z" fill="#FE4BB1"/>
<path d="M522.402 760.047L522.171 760.373L536.127 770.255L536.358 769.928L522.402 760.047Z" fill="#FE4CB0"/>
<path d="M522.673 759.71L522.441 760.037L536.397 769.918L536.629 769.592L522.673 759.71Z" fill="#FE4DB0"/>
<path d="M522.901 759.392L522.67 759.718L536.626 769.6L536.857 769.273L522.901 759.392Z" fill="#FE4EB0"/>
<path d="M523.172 759.055L522.941 759.382L536.897 769.263L537.128 768.937L523.172 759.055Z" fill="#FE4FAF"/>
<path d="M523.342 758.719L523.111 759.045L537.067 768.927L537.298 768.6L523.342 758.719Z" fill="#FE50AF"/>
<path d="M523.532 758.424L523.301 758.751L537.257 768.632L537.488 768.306L523.532 758.424Z" fill="#FE51AF"/>
<path d="M523.86 758.006L523.629 758.333L537.585 768.214L537.816 767.888L523.86 758.006Z" fill="#FE52AE"/>
<path d="M524.031 757.77L523.8 758.096L537.756 767.977L537.987 767.651L524.031 757.77Z" fill="#FE53AE"/>
<path d="M524.302 757.433L524.071 757.76L538.026 767.641L538.258 767.314L524.302 757.433Z" fill="#FE54AE"/>
<path d="M524.472 757.196L524.241 757.523L538.197 767.404L538.428 767.078L524.472 757.196Z" fill="#FE55AE"/>
<path d="M524.719 756.72L524.488 757.047L538.444 766.928L538.675 766.602L524.719 756.72Z" fill="#FE56AD"/>
<path d="M524.89 756.484L524.659 756.81L538.615 766.692L538.846 766.365L524.89 756.484Z" fill="#FE57AD"/>
<path d="M525.161 756.147L524.93 756.474L538.886 766.355L539.117 766.029L525.161 756.147Z" fill="#FE58AD"/>
<path d="M525.331 755.911L525.1 756.237L539.056 766.118L539.287 765.792L525.331 755.911Z" fill="#FE59AC"/>
<path d="M525.66 755.492L525.429 755.819L539.385 765.7L539.616 765.374L525.66 755.492Z" fill="#FF5BAC"/>
<path d="M525.831 755.256L525.6 755.582L539.556 765.464L539.787 765.137L525.831 755.256Z" fill="#FF5CAC"/>
<path d="M526.02 754.862L525.789 755.188L539.745 765.069L539.976 764.743L526.02 754.862Z" fill="#FF5DAB"/>
<path d="M526.291 754.625L526.06 754.951L540.016 764.833L540.247 764.506L526.291 754.625Z" fill="#FF5EAB"/>
<path d="M526.519 754.207L526.288 754.533L540.244 764.415L540.475 764.088L526.519 754.207Z" fill="#FF5FAB"/>
<path d="M526.79 753.97L526.559 754.297L540.515 764.178L540.746 763.852L526.79 753.97Z" fill="#FF60AA"/>
<path d="M526.961 753.634L526.729 753.96L540.685 763.841L540.917 763.515L526.961 753.634Z" fill="#FF61AA"/>
<path d="M527.231 753.397L527 753.723L540.956 763.605L541.187 763.278L527.231 753.397Z" fill="#FF62AA"/>
<path d="M527.378 752.921L527.147 753.248L541.103 763.129L541.334 762.802L527.378 752.921Z" fill="#FF63AA"/>
<path d="M527.649 752.684L527.418 753.011L541.374 762.892L541.605 762.566L527.649 752.684Z" fill="#FF64A9"/>
<path d="M527.82 752.348L527.588 752.674L541.544 762.556L541.776 762.229L527.82 752.348Z" fill="#FF65A9"/>
<path d="M528.09 752.111L527.859 752.438L541.815 762.319L542.046 761.993L528.09 752.111Z" fill="#FF66A9"/>
<path d="M528.319 751.693L528.088 752.02L542.044 761.901L542.275 761.574L528.319 751.693Z" fill="#FF67A8"/>
<path d="M528.59 751.457L528.358 751.783L542.314 761.664L542.545 761.338L528.59 751.457Z" fill="#FF68A8"/>
<path d="M528.679 751.062L528.448 751.389L542.403 761.27L542.635 760.943L528.679 751.062Z" fill="#FF69A8"/>
<path d="M528.949 750.826L528.718 751.152L542.674 761.033L542.905 760.707L528.949 750.826Z" fill="#FF6AA7"/>
<path d="M529.278 750.407L529.047 750.734L543.003 760.615L543.234 760.289L529.278 750.407Z" fill="#FF6BA7"/>
<path d="M529.449 750.171L529.218 750.497L543.174 760.379L543.405 760.052L529.449 750.171Z" fill="#FF6CA7"/>
<path d="M529.719 749.834L529.488 750.161L543.444 760.042L543.675 759.716L529.719 749.834Z" fill="#FF6DA6"/>
<path d="M529.809 749.54L529.577 749.866L543.533 759.748L543.764 759.421L529.809 749.54Z" fill="#FF6EA6"/>
<path d="M530.137 749.122L529.906 749.448L543.862 759.329L544.093 759.003L530.137 749.122Z" fill="#FF6FA6"/>
<path d="M530.308 748.885L530.077 749.211L544.033 759.093L544.264 758.766L530.308 748.885Z" fill="#FF70A6"/>
<path d="M530.579 748.548L530.347 748.875L544.303 758.756L544.534 758.43L530.579 748.548Z" fill="#FF71A5"/>
<path d="M530.749 748.312L530.518 748.638L544.474 758.52L544.705 758.193L530.749 748.312Z" fill="#FF72A5"/>
<path d="M531.078 747.894L530.847 748.22L544.803 758.101L545.034 757.775L531.078 747.894Z" fill="#FF73A5"/>
<path d="M531.167 747.599L530.936 747.926L544.892 757.807L545.123 757.481L531.167 747.599Z" fill="#FF74A4"/>
<path d="M531.438 747.263L531.207 747.589L545.162 757.47L545.394 757.144L531.438 747.263Z" fill="#FF75A4"/>
<path d="M531.708 747.026L531.477 747.353L545.433 757.234L545.664 756.907L531.708 747.026Z" fill="#FF76A4"/>
<path d="M531.937 746.608L531.706 746.934L545.662 756.816L545.893 756.489L531.937 746.608Z" fill="#FF77A3"/>
<path d="M532.208 746.371L531.977 746.698L545.933 756.579L546.164 756.253L532.208 746.371Z" fill="#FF78A3"/>
<path d="M532.378 746.035L532.147 746.361L546.103 756.243L546.334 755.916L532.378 746.035Z" fill="#FF79A3"/>
<path d="M532.568 745.74L532.336 746.067L546.292 755.948L546.524 755.622L532.568 745.74Z" fill="#FF7AA3"/>
<path d="M532.796 745.322L532.565 745.649L546.521 755.53L546.752 755.204L532.796 745.322Z" fill="#FF7BA2"/>
<path d="M533.067 745.086L532.835 745.412L546.791 755.293L547.023 754.967L533.067 745.086Z" fill="#FF7CA2"/>
<path d="M533.237 744.749L533.006 745.075L546.962 754.957L547.193 754.63L533.237 744.749Z" fill="#FF7DA2"/>
<path d="M533.508 744.512L533.277 744.839L547.233 754.72L547.464 754.394L533.508 744.512Z" fill="#FF7EA1"/>
<path d="M533.655 744.036L533.424 744.363L547.38 754.244L547.611 753.918L533.655 744.036Z" fill="#FF7FA1"/>
<path d="M533.926 743.8L533.695 744.126L547.651 754.008L547.882 753.681L533.926 743.8Z" fill="#FF80A1"/>
<path d="M534.096 743.463L533.865 743.79L547.821 753.671L548.052 753.345L534.096 743.463Z" fill="#FF81A0"/>
<path d="M534.1 743.4L534.2 743.3L534.6 743.2L548.1 752.7V753.1V753.2L534.1 743.4Z" fill="#FF82A0"/>
<path d="M535.2 743.1L548 752.2L548.1 752.7L534.6 743.2L535.2 743.1Z" fill="#FF83A0"/>
<path d="M535.7 743L547.9 751.6L548 752.2L535.2 743.1L535.7 743Z" fill="#FF849F"/>
<path d="M536.2 742.9L547.8 751.1L547.9 751.6L535.7 743L536.2 742.9Z" fill="#FF859F"/>
<path d="M536.8 742.8L547.7 750.6L547.8 751.1L536.2 742.9L536.8 742.8Z" fill="#FF869F"/>
<path d="M537.3 742.7L547.6 750L547.7 750.6L536.8 742.8L537.3 742.7Z" fill="#FF879F"/>
<path d="M537.9 742.7L547.5 749.5L547.6 750L537.3 742.7H537.9Z" fill="#FF889E"/>
<path d="M538.4 742.6L547.4 748.9L547.5 749.5L537.9 742.7L538.4 742.6Z" fill="#FF899E"/>
<path d="M539 742.5L547.3 748.4L547.4 748.9L538.4 742.6L539 742.5Z" fill="#FF8A9E"/>
<path d="M539.5 742.4L547.2 747.9L547.3 748.4L539 742.5L539.5 742.4Z" fill="#FF8B9D"/>
<path d="M540 742.3L547.1 747.3L547.2 747.9L539.5 742.4L540 742.3Z" fill="#FF8C9D"/>
<path d="M547.1 747.3L540 742.3L546.1 741.2L547.1 747.3Z" fill="#FF8C9D"/>
</g>
<mask id="mask4_210_6272" style="mask-type:luminance" maskUnits="userSpaceOnUse" x="500" y="713" width="105" height="105">
<path d="M595.8 805.3L525 817.4C519.3 818.4 513.8 814.5 512.8 808.8L500.7 738C499.7 732.3 503.6 726.8 509.3 725.8L580.1 713.7C585.8 712.7 591.3 716.6 592.3 722.3L604.4 793.1C605.4 798.8 601.5 804.3 595.8 805.3ZM510.1 730.3C506.8 730.9 504.7 734 505.2 737.2L517.3 808C517.9 811.3 521 813.4 524.2 812.9L595 800.8C598.3 800.2 600.4 797.1 599.9 793.9L587.8 723.1C587.2 719.8 584.1 717.7 580.9 718.2L510.1 730.3Z" fill="white"/>
</mask>
<g mask="url(#mask4_210_6272)">
<path d="M504.7 761L513.7 813.5H504.7V761Z" fill="#7A01FF"/>
<path d="M504.7 756.8L514.4 813.5H513.7L504.7 761V756.8Z" fill="#7A01FF"/>
<path d="M504.7 752.6L515.1 813.5H514.4L504.7 756.8V752.6Z" fill="#7B01FE"/>
<path d="M504.7 748.5L515.8 813.5H515.1L504.7 752.6V748.5Z" fill="#7C02FE"/>
<path d="M504.7 744.3L516.5 813.5H515.8L504.7 748.5V744.3Z" fill="#7D02FD"/>
<path d="M504.7 740.1L517.2 813.5H516.5L504.7 744.3V740.1Z" fill="#7E02FD"/>
<path d="M504.7 736L517.9 813.5H517.2L504.7 740.1V736Z" fill="#7F03FC"/>
<path d="M504.7 731.8L518.6 813.5H517.9L504.7 736V731.8Z" fill="#8003FC"/>
<path d="M504.7 727.6L519.4 813.5H518.6L504.7 731.8V727.6Z" fill="#8103FB"/>
<path d="M504.7 727.3L505.3 727.2L520.1 813.5H519.4L504.7 727.6V727.3Z" fill="#8203FB"/>
<path d="M505.3 727.2L506 727.1L520.8 813.5H520.1L505.3 727.2Z" fill="#8304FA"/>
<path d="M506 727.1L506.7 727L521.5 813.5H520.8L506 727.1Z" fill="#8404FA"/>
<path d="M506.7 727L507.4 726.8L522.2 813.5H521.5L506.7 727Z" fill="#8504F9"/>
<path d="M507.4 726.8L508.1 726.7L522.9 813.5H522.2L507.4 726.8Z" fill="#8605F9"/>
<path d="M508.1 726.7L508.8 726.6L523.6 813.5H522.9L508.1 726.7Z" fill="#8705F8"/>
<path d="M508.8 726.6L509.5 726.5L524.4 813.5H523.6L508.8 726.6Z" fill="#8805F8"/>
<path d="M509.5 726.5L510.2 726.4L525.1 813.5H524.4L509.5 726.5Z" fill="#8906F7"/>
<path d="M510.2 726.4L510.9 726.2L525.8 813.5H525.1L510.2 726.4Z" fill="#8A06F7"/>
<path d="M510.9 726.2L511.6 726.1L526.5 813.5H525.8L510.9 726.2Z" fill="#8B06F6"/>
<path d="M511.6 726.1L512.2 726L527.2 813.5H526.5L511.6 726.1Z" fill="#8C06F6"/>
<path d="M512.2 726L512.9 725.9L527.9 813.5H527.2L512.2 726Z" fill="#8D07F5"/>
<path d="M512.9 725.9L513.6 725.8L528.6 813.5H527.9L512.9 725.9Z" fill="#8E07F5"/>
<path d="M513.6 725.8L514.3 725.7L529.4 813.5H528.6L513.6 725.8Z" fill="#8F07F4"/>
<path d="M514.3 725.7L515 725.5L530.1 813.5H529.4L514.3 725.7Z" fill="#9008F4"/>
<path d="M515 725.5L515.7 725.4L530.8 813.5H530.1L515 725.5Z" fill="#9108F3"/>
<path d="M515.7 725.4L516.4 725.3L531.5 813.5H530.8L515.7 725.4Z" fill="#9208F3"/>
<path d="M516.4 725.3L517.1 725.2L532.2 813.5H531.5L516.4 725.3Z" fill="#9309F2"/>
<path d="M517.1 725.2L517.8 725.1L532.9 813.5H532.2L517.1 725.2Z" fill="#9409F2"/>
<path d="M517.8 725.1L518.5 724.9L533.6 813.5H532.9L517.8 725.1Z" fill="#9509F1"/>
<path d="M518.5 724.9L519.2 724.8L534.3 813.5H533.6L518.5 724.9Z" fill="#960AF0"/>
<path d="M519.2 724.8L519.9 724.7L535.1 813.5H534.3L519.2 724.8Z" fill="#970AF0"/>
<path d="M519.9 724.7L520.6 724.6L535.8 813.5H535.1L519.9 724.7Z" fill="#980AEF"/>
<path d="M520.6 724.6L521.3 724.5L536.5 813.5H535.8L520.6 724.6Z" fill="#990AEF"/>
<path d="M521.3 724.5L522 724.3L537.2 813.5H536.5L521.3 724.5Z" fill="#9A0BEE"/>
<path d="M522 724.3L522.7 724.2L537.9 813.5H537.2L522 724.3Z" fill="#9B0BEE"/>
<path d="M522.7 724.2L523.3 724.1L538.6 813.5H537.9L522.7 724.2Z" fill="#9C0BED"/>
<path d="M523.3 724.1L524 724L539.3 813.5H538.6L523.3 724.1Z" fill="#9D0CED"/>
<path d="M524 724L524.7 723.9L540.1 813.5H539.3L524 724Z" fill="#9E0CEC"/>
<path d="M524.7 723.9L525.4 723.8L540.8 813.5H540.1L524.7 723.9Z" fill="#9F0CEC"/>
<path d="M525.4 723.8L526.1 723.6L541.5 813.5H540.8L525.4 723.8Z" fill="#A00DEB"/>
<path d="M526.1 723.6L526.8 723.5L542.2 813.5H541.5L526.1 723.6Z" fill="#A10DEB"/>
<path d="M526.8 723.5L527.5 723.4L542.9 813.5H542.2L526.8 723.5Z" fill="#A20DEA"/>
<path d="M527.5 723.4L528.2 723.3L543.6 813.5H542.9L527.5 723.4Z" fill="#A30EEA"/>
<path d="M528.2 723.3L528.9 723.2L544.3 813.4L544.2 813.5H543.6L528.2 723.3Z" fill="#A40EE9"/>
<path d="M529.435 723.143L528.745 723.261L544.179 813.551L544.869 813.433L529.435 723.143Z" fill="#A50EE9"/>
<path d="M530.208 723.026L529.518 723.144L544.952 813.435L545.642 813.317L530.208 723.026Z" fill="#A60EE8"/>
<path d="M530.882 722.91L530.192 723.028L545.625 813.318L546.315 813.2L530.882 722.91Z" fill="#A70FE8"/>
<path d="M531.555 722.793L530.865 722.911L546.298 813.202L546.988 813.084L531.555 722.793Z" fill="#A80FE7"/>
<path d="M532.328 722.677L531.638 722.795L547.072 813.085L547.762 812.967L532.328 722.677Z" fill="#A90FE7"/>
<path d="M533.001 722.56L532.311 722.678L547.745 812.969L548.435 812.851L533.001 722.56Z" fill="#AA10E6"/>
<path d="M533.657 722.345L532.967 722.463L548.401 812.754L549.091 812.636L533.657 722.345Z" fill="#AB10E6"/>
<path d="M534.33 722.329L533.64 722.447L549.074 812.737L549.764 812.619L534.33 722.329Z" fill="#AC10E5"/>
<path d="M535.104 722.212L534.414 722.33L549.847 812.621L550.537 812.503L535.104 722.212Z" fill="#AD11E5"/>
<path d="M535.777 722.096L535.087 722.214L550.52 812.504L551.21 812.386L535.777 722.096Z" fill="#AE11E4"/>
<path d="M536.351 721.996L535.661 722.114L551.095 812.404L551.785 812.287L536.351 721.996Z" fill="#AF11E3"/>
<path d="M537.107 721.781L536.417 721.899L551.851 812.189L552.541 812.071L537.107 721.781Z" fill="#B011E3"/>
<path d="M537.781 721.665L537.091 721.782L552.524 812.073L553.214 811.955L537.781 721.665Z" fill="#B112E2"/>
<path d="M538.454 721.648L537.764 721.766L553.198 812.056L553.888 811.938L538.454 721.648Z" fill="#B212E2"/>
<path d="M539.227 721.531L538.537 721.649L553.971 811.94L554.661 811.822L539.227 721.531Z" fill="#B312E1"/>
<path d="M539.9 721.415L539.21 721.533L554.644 811.823L555.334 811.705L539.9 721.415Z" fill="#B413E1"/>
<path d="M540.556 721.2L539.866 721.318L555.3 811.608L555.99 811.49L540.556 721.2Z" fill="#B513E0"/>
<path d="M541.229 721.083L540.54 721.201L555.973 811.492L556.663 811.374L541.229 721.083Z" fill="#B613E0"/>
<path d="M542.003 720.967L541.313 721.085L556.746 811.375L557.436 811.257L542.003 720.967Z" fill="#B714DF"/>
<path d="M542.676 720.85L541.986 720.968L557.419 811.259L558.109 811.141L542.676 720.85Z" fill="#B814DF"/>
<path d="M543.349 720.834L542.659 720.952L558.093 811.242L558.783 811.124L543.349 720.834Z" fill="#B914DE"/>
<path d="M544.122 720.717L543.432 720.835L558.866 811.126L559.556 811.008L544.122 720.717Z" fill="#BA15DE"/>
<path d="M544.778 720.502L544.088 720.62L559.522 810.911L560.212 810.793L544.778 720.502Z" fill="#BB15DD"/>
<path d="M545.452 720.386L544.762 720.504L560.195 810.794L560.885 810.676L545.452 720.386Z" fill="#BD15DD"/>
<path d="M546.225 720.269L545.535 720.387L560.968 810.678L561.658 810.56L546.225 720.269Z" fill="#BE15DC"/>
<path d="M546.799 720.169L546.109 720.287L561.543 810.578L562.233 810.46L546.799 720.169Z" fill="#BF16DC"/>
<path d="M547.472 720.053L546.782 720.171L562.216 810.461L562.906 810.343L547.472 720.053Z" fill="#C016DB"/>
<path d="M548.129 719.938L547.439 720.056L562.872 810.346L563.562 810.228L548.129 719.938Z" fill="#C116DB"/>
<path d="M548.902 719.821L548.212 719.939L563.646 810.23L564.336 810.112L548.902 719.821Z" fill="#C217DA"/>
<path d="M549.575 719.705L548.885 719.823L564.319 810.113L565.009 809.995L549.575 719.705Z" fill="#C317DA"/>
<path d="M550.248 719.588L549.558 719.706L564.992 809.997L565.682 809.879L550.248 719.588Z" fill="#C417D9"/>
<path d="M551.021 719.472L550.331 719.59L565.765 809.88L566.455 809.762L551.021 719.472Z" fill="#C518D9"/>
<path d="M551.694 719.355L551.004 719.473L566.438 809.764L567.128 809.646L551.694 719.355Z" fill="#C618D8"/>
<path d="M552.351 719.24L551.661 719.358L567.094 809.649L567.784 809.531L552.351 719.24Z" fill="#C718D8"/>
<path d="M553.124 719.124L552.434 719.242L567.868 809.532L568.558 809.414L553.124 719.124Z" fill="#C819D7"/>
<path d="M553.797 719.007L553.107 719.125L568.541 809.416L569.231 809.298L553.797 719.007Z" fill="#C919D7"/>
<path d="M554.47 718.891L553.78 719.009L569.214 809.299L569.904 809.181L554.47 718.891Z" fill="#CA19D6"/>
<path d="M555.143 718.774L554.453 718.892L569.887 809.183L570.577 809.065L555.143 718.774Z" fill="#CB19D5"/>
<path d="M555.9 718.559L555.21 718.677L570.643 808.967L571.333 808.849L555.9 718.559Z" fill="#CC1AD5"/>
<path d="M556.573 718.443L555.883 718.561L571.316 808.851L572.006 808.733L556.573 718.443Z" fill="#CD1AD4"/>
<path d="M557.147 718.443L556.457 718.561L571.891 808.851L572.581 808.733L557.147 718.443Z" fill="#CE1AD4"/>
<path d="M557.92 718.326L557.23 718.444L572.664 808.735L573.354 808.617L557.92 718.326Z" fill="#CF1BD3"/>
<path d="M558.594 718.21L557.904 718.328L573.337 808.618L574.027 808.5L558.594 718.21Z" fill="#D01BD3"/>
<path d="M559.25 717.995L558.56 718.113L573.994 808.403L574.684 808.285L559.25 717.995Z" fill="#D11BD2"/>
<path d="M560.023 717.878L559.333 717.996L574.767 808.287L575.457 808.169L560.023 717.878Z" fill="#D21CD2"/>
<path d="M560.696 717.762L560.006 717.88L575.44 808.17L576.13 808.052L560.696 717.762Z" fill="#D31CD1"/>
<path d="M560.8 717.7H560.9H561.5L576.9 807.9L576.2 808L560.8 717.7Z" fill="#D41CD1"/>
<path d="M562.2 717.7L577.6 807.7L576.9 807.9L561.5 717.7H562.2Z" fill="#D51CD0"/>
<path d="M562.9 717.7L578.3 807.6L577.6 807.7L562.2 717.7H562.9Z" fill="#D61DD0"/>
<path d="M563.6 717.7L579 807.5L578.3 807.6L562.9 717.7H563.6Z" fill="#D71DCF"/>
<path d="M564.4 717.7L579.7 807.4L579 807.5L563.6 717.7H564.4Z" fill="#D81DCF"/>
<path d="M565.1 717.7L580.4 807.3L579.7 807.4L564.4 717.7H565.1Z" fill="#D91ECE"/>
<path d="M565.8 717.7L581.1 807.1L580.4 807.3L565.1 717.7H565.8Z" fill="#DA1ECE"/>
<path d="M566.5 717.7L581.8 807L581.1 807.1L565.8 717.7H566.5Z" fill="#DB1ECD"/>
<path d="M567.2 717.7L582.5 806.9L581.8 807L566.5 717.7H567.2Z" fill="#DC1FCD"/>
<path d="M567.9 717.7L583.2 806.8L582.5 806.9L567.2 717.7H567.9Z" fill="#DD1FCC"/>
<path d="M568.6 717.7L583.9 806.7L583.2 806.8L567.9 717.7H568.6Z" fill="#DE1FCC"/>
<path d="M569.4 717.7L584.6 806.6L583.9 806.7L568.6 717.7H569.4Z" fill="#DF20CB"/>
<path d="M570.1 717.7L585.3 806.4L584.6 806.6L569.4 717.7H570.1Z" fill="#E020CB"/>
<path d="M570.8 717.7L585.9 806.3L585.3 806.4L570.1 717.7H570.8Z" fill="#E120CA"/>
<path d="M571.5 717.7L586.6 806.2L585.9 806.3L570.8 717.7H571.5Z" fill="#E220CA"/>
<path d="M572.2 717.7L587.3 806.1L586.6 806.2L571.5 717.7H572.2Z" fill="#E321C9"/>
<path d="M572.9 717.7L588 806L587.3 806.1L572.2 717.7H572.9Z" fill="#E421C8"/>
<path d="M573.6 717.7L588.7 805.8L588 806L572.9 717.7H573.6Z" fill="#E521C8"/>
<path d="M574.3 717.7L589.4 805.7L588.7 805.8L573.6 717.7H574.3Z" fill="#E622C7"/>
<path d="M575.1 717.7L590.1 805.6L589.4 805.7L574.3 717.7H575.1Z" fill="#E722C7"/>
<path d="M575.8 717.7L590.8 805.5L590.1 805.6L575.1 717.7H575.8Z" fill="#E822C6"/>
<path d="M576.5 717.7L591.5 805.4L590.8 805.5L575.8 717.7H576.5Z" fill="#E923C6"/>
<path d="M577.2 717.7L592.2 805.2L591.5 805.4L576.5 717.7H577.2Z" fill="#EA23C5"/>
<path d="M577.9 717.7L592.9 805.1L592.2 805.2L577.2 717.7H577.9Z" fill="#EB23C5"/>
<path d="M578.6 717.7L593.6 805L592.9 805.1L577.9 717.7H578.6Z" fill="#EC24C4"/>
<path d="M579.3 717.7L594.3 804.9L593.6 805L578.6 717.7H579.3Z" fill="#ED24C4"/>
<path d="M580.1 717.7L595 804.8L594.3 804.9L579.3 717.7H580.1Z" fill="#EE24C3"/>
<path d="M580.8 717.7L595.7 804.7L595 804.8L580.1 717.7H580.8Z" fill="#EF24C3"/>
<path d="M581.5 717.7L596.3 804.5L595.7 804.7L580.8 717.7H581.5Z" fill="#F025C2"/>
<path d="M582.2 717.7L597 804.4L596.3 804.5L581.5 717.7H582.2Z" fill="#F125C2"/>
<path d="M582.9 717.7L597.7 804.3L597 804.4L582.2 717.7H582.9Z" fill="#F225C1"/>
<path d="M583.6 717.7L598.4 804.2L597.7 804.3L582.9 717.7H583.6Z" fill="#F326C1"/>
<path d="M584.3 717.7L599.1 804.1L598.4 804.2L583.6 717.7H584.3Z" fill="#F426C0"/>
<path d="M585.1 717.7L599.8 803.9L599.1 804.1L584.3 717.7H585.1Z" fill="#F526C0"/>
<path d="M585.8 717.7L600.5 803.5V803.8L599.8 803.9L585.1 717.7H585.8Z" fill="#F627BF"/>
<path d="M586.5 717.7L600.5 799.4V803.5L585.8 717.7H586.5Z" fill="#F727BF"/>
<path d="M587.2 717.7L600.5 795.2V799.4L586.5 717.7H587.2Z" fill="#F827BE"/>
<path d="M587.9 717.7L600.5 791V795.2L587.2 717.7H587.9Z" fill="#F927BE"/>
<path d="M588.6 717.7L600.5 786.8V791L587.9 717.7H588.6Z" fill="#FA28BD"/>
<path d="M589.3 717.7L600.5 782.7V786.8L588.6 717.7H589.3Z" fill="#FB28BD"/>
<path d="M590.1 717.7L600.5 778.5V782.7L589.3 717.7H590.1Z" fill="#FC28BC"/>
<path d="M590.8 717.7L600.5 774.3V778.5L590.1 717.7H590.8Z" fill="#FD29BC"/>
<path d="M591.5 717.7L600.5 770.2V774.3L590.8 717.7H591.5Z" fill="#FE29BB"/>
<path d="M600.5 770.2L591.5 717.7H600.5V770.2Z" fill="#FE29BB"/>
<path d="M499.8 732.3L514.5 818.4H499.8V732.3Z" fill="#7A01FF"/>
<path d="M499.8 728.1L515.2 818.4H514.5L499.8 732.3V728.1Z" fill="#7A01FF"/>
<path d="M499.8 723.9L515.9 818.4H515.2L499.8 728.1V723.9Z" fill="#7B01FE"/>
<path d="M499.8 723.5L500.4 723.4L516.6 818.4H515.9L499.8 723.9V723.5Z" fill="#7C02FE"/>
<path d="M500.4 723.4L501.1 723.3L517.3 818.4H516.6L500.4 723.4Z" fill="#7D02FD"/>
<path d="M501.1 723.3L501.8 723.2L518.1 818.4H517.3L501.1 723.3Z" fill="#7E02FD"/>
<path d="M501.8 723.2L502.5 723.1L518.8 818.4H518.1L501.8 723.2Z" fill="#7F03FC"/>
<path d="M502.5 723.1L503.2 722.9L519.5 818.4H518.8L502.5 723.1Z" fill="#8003FC"/>
<path d="M503.2 722.9L503.9 722.8L520.2 818.4H519.5L503.2 722.9Z" fill="#8103FB"/>
<path d="M503.9 722.8L504.5 722.7L520.9 818.4H520.2L503.9 722.8Z" fill="#8203FB"/>
<path d="M504.5 722.7L505.2 722.6L521.6 818.4H520.9L504.5 722.7Z" fill="#8304FA"/>
<path d="M505.2 722.6L505.9 722.5L522.3 818.4H521.6L505.2 722.6Z" fill="#8404FA"/>
<path d="M505.9 722.5L506.6 722.4L523.1 818.4H522.3L505.9 722.5Z" fill="#8504F9"/>
<path d="M506.6 722.4L507.3 722.2L523.8 818.4H523.1L506.6 722.4Z" fill="#8605F9"/>
<path d="M507.3 722.2L508 722.1L524.5 818.4H523.8L507.3 722.2Z" fill="#8705F8"/>
<path d="M508 722.1L508.7 722L525.2 818.4H524.5L508 722.1Z" fill="#8805F8"/>
<path d="M508.7 722L509.4 721.9L525.9 818.4H525.2L508.7 722Z" fill="#8906F7"/>
<path d="M509.4 721.9L510.1 721.8L526.6 818.4H525.9L509.4 721.9Z" fill="#8A06F7"/>
<path d="M510.1 721.8L510.8 721.6L527.3 818.4H526.6L510.1 721.8Z" fill="#8B06F6"/>
<path d="M510.8 721.6L511.5 721.5L528.1 818.4H527.3L510.8 721.6Z" fill="#8C06F6"/>
<path d="M511.5 721.5L512.2 721.4L528.8 818.4H528.1L511.5 721.5Z" fill="#8D07F5"/>
<path d="M512.2 721.4L512.9 721.3L529.5 818.4H528.8L512.2 721.4Z" fill="#8E07F5"/>
<path d="M512.9 721.3L513.6 721.2L530.2 818.4H529.5L512.9 721.3Z" fill="#8F07F4"/>
<path d="M513.6 721.2L514.3 721L530.9 818.4H530.2L513.6 721.2Z" fill="#9008F4"/>
<path d="M514.3 721L514.9 720.9L531.6 818.4H530.9L514.3 721Z" fill="#9108F3"/>
<path d="M514.9 720.9L515.6 720.8L532.3 818.4H531.6L514.9 720.9Z" fill="#9208F3"/>
<path d="M515.6 720.8L516.3 720.7L533 818.4H532.3L515.6 720.8Z" fill="#9309F2"/>
<path d="M516.3 720.7L517 720.6L533.8 818.4H533L516.3 720.7Z" fill="#9409F2"/>
<path d="M517 720.6L517.7 720.5L534.5 818.4H533.8L517 720.6Z" fill="#9509F1"/>
<path d="M517.7 720.5L518.4 720.3L535.2 818.4H534.5L517.7 720.5Z" fill="#960AF0"/>
<path d="M518.4 720.3L519.1 720.2L535.9 818.4H535.2L518.4 720.3Z" fill="#970AF0"/>
<path d="M519.1 720.2L519.8 720.1L536.6 818.4H535.9L519.1 720.2Z" fill="#980AEF"/>
<path d="M519.8 720.1L520.5 720L537.3 818.4H536.6L519.8 720.1Z" fill="#990AEF"/>
<path d="M520.5 720L521.2 719.9L538 818.4H537.3L520.5 720Z" fill="#9A0BEE"/>
<path d="M521.2 719.9L521.9 719.7L538.8 818.4H538L521.2 719.9Z" fill="#9B0BEE"/>
<path d="M521.9 719.7L522.6 719.6L539.5 818.4H538.8L521.9 719.7Z" fill="#9C0BED"/>
<path d="M522.6 719.6L523.3 719.5L540.2 818.4H539.5L522.6 719.6Z" fill="#9D0CED"/>
<path d="M523.3 719.5L524 719.4L540.9 818.4H540.2L523.3 719.5Z" fill="#9E0CEC"/>
<path d="M524 719.4L524.7 719.3L541.6 818.4H540.9L524 719.4Z" fill="#9F0CEC"/>
<path d="M524.7 719.3L525.4 719.2L542.3 818.4H541.6L524.7 719.3Z" fill="#A00DEB"/>
<path d="M525.4 719.2L526 719L543 818.3L542.5 818.4H542.3L525.4 719.2Z" fill="#A10DEB"/>
<path d="M526.575 719.055L525.885 719.173L542.851 818.434L543.541 818.316L526.575 719.055Z" fill="#A20DEA"/>
<path d="M527.331 718.84L526.641 718.958L543.608 818.219L544.298 818.101L527.331 718.84Z" fill="#A30EEA"/>
<path d="M528.004 718.724L527.314 718.842L544.281 818.102L544.971 817.984L528.004 718.724Z" fill="#A40EE9"/>
<path d="M528.677 718.707L527.987 718.825L544.954 818.085L545.644 817.968L528.677 718.707Z" fill="#A50EE9"/>
<path d="M529.45 718.591L528.76 718.709L545.727 817.969L546.417 817.851L529.45 718.591Z" fill="#A60EE8"/>
<path d="M530.123 718.474L529.433 718.592L546.4 817.853L547.09 817.735L530.123 718.474Z" fill="#A70FE8"/>
<path d="M530.78 718.259L530.09 718.377L547.056 817.637L547.746 817.519L530.78 718.259Z" fill="#A80FE7"/>
<path d="M531.553 718.143L530.863 718.26L547.83 817.521L548.52 817.403L531.553 718.143Z" fill="#A90FE7"/>
<path d="M532.226 718.026L531.536 718.144L548.503 817.404L549.193 817.286L532.226 718.026Z" fill="#AA10E6"/>
<path d="M532.899 717.91L532.209 718.028L549.176 817.288L549.866 817.17L532.899 717.91Z" fill="#AB10E6"/>
<path d="M533.572 717.893L532.882 718.011L549.849 817.271L550.539 817.153L533.572 717.893Z" fill="#AC10E5"/>
<path d="M534.329 717.678L533.639 717.796L550.606 817.056L551.296 816.938L534.329 717.678Z" fill="#AD11E5"/>
<path d="M535.002 717.562L534.312 717.679L551.279 816.94L551.969 816.822L535.002 717.562Z" fill="#AE11E4"/>
<path d="M535.576 717.462L534.886 717.58L551.853 816.84L552.543 816.722L535.576 717.462Z" fill="#AF11E3"/>
<path d="M536.349 717.345L535.659 717.463L552.626 816.723L553.316 816.606L536.349 717.345Z" fill="#B011E3"/>
<path d="M537.022 717.229L536.333 717.347L553.299 816.607L553.989 816.489L537.022 717.229Z" fill="#B112E2"/>
<path d="M537.696 717.212L537.006 717.33L553.972 816.591L554.662 816.473L537.696 717.212Z" fill="#B212E2"/>
<path d="M538.452 716.997L537.762 717.115L554.729 816.376L555.419 816.258L538.452 716.997Z" fill="#B312E1"/>
<path d="M539.125 716.881L538.435 716.999L555.402 816.259L556.092 816.141L539.125 716.881Z" fill="#B413E1"/>
<path d="M539.798 716.764L539.108 716.882L556.075 816.142L556.765 816.024L539.798 716.764Z" fill="#B513E0"/>
<path d="M540.471 716.648L539.781 716.766L556.748 816.026L557.438 815.908L540.471 716.648Z" fill="#B613E0"/>
<path d="M541.244 716.531L540.554 716.649L557.521 815.909L558.211 815.791L541.244 716.531Z" fill="#B714DF"/>
<path d="M541.901 716.316L541.211 716.434L558.178 815.694L558.868 815.576L541.901 716.316Z" fill="#B814DF"/>
<path d="M542.574 716.3L541.884 716.417L558.851 815.678L559.541 815.56L542.574 716.3Z" fill="#B914DE"/>
<path d="M543.347 716.183L542.657 716.301L559.624 815.561L560.314 815.443L543.347 716.183Z" fill="#BA15DE"/>
<path d="M544.02 716.067L543.33 716.184L560.297 815.445L560.987 815.327L544.02 716.067Z" fill="#BB15DD"/>
<path d="M544.693 715.95L544.003 716.068L560.97 815.328L561.66 815.21L544.693 715.95Z" fill="#BD15DD"/>
<path d="M545.45 715.735L544.76 715.853L561.727 815.113L562.417 814.995L545.45 715.735Z" fill="#BE15DC"/>
<path d="M546.024 715.635L545.334 715.753L562.301 815.013L562.991 814.896L546.024 715.635Z" fill="#BF16DC"/>
<path d="M546.697 715.519L546.007 715.637L562.974 814.897L563.664 814.779L546.697 715.519Z" fill="#C016DB"/>
<path d="M547.371 715.502L546.681 715.62L563.648 814.88L564.338 814.763L547.371 715.502Z" fill="#C116DB"/>
<path d="M548.144 715.386L547.454 715.504L564.42 814.764L565.111 814.646L548.144 715.386Z" fill="#C217DA"/>
<path d="M548.817 715.269L548.127 715.387L565.094 814.648L565.784 814.53L548.817 715.269Z" fill="#C317DA"/>
<path d="M549.473 715.054L548.783 715.172L565.75 814.432L566.44 814.315L549.473 715.054Z" fill="#C417D9"/>
<path d="M550.246 714.938L549.556 715.056L566.523 814.316L567.213 814.198L550.246 714.938Z" fill="#C518D9"/>
<path d="M550.919 714.821L550.229 714.939L567.196 814.199L567.886 814.081L550.919 714.821Z" fill="#C618D8"/>
<path d="M551.593 714.805L550.903 714.923L567.869 814.183L568.559 814.065L551.593 714.805Z" fill="#C718D8"/>
<path d="M552.366 714.688L551.676 714.806L568.643 814.066L569.333 813.948L552.366 714.688Z" fill="#C819D7"/>
<path d="M553.022 714.473L552.332 714.591L569.299 813.851L569.989 813.733L553.022 714.473Z" fill="#C919D7"/>
<path d="M553.695 714.356L553.005 714.474L569.972 813.735L570.662 813.617L553.695 714.356Z" fill="#CA19D6"/>
<path d="M554.368 714.24L553.678 714.358L570.645 813.618L571.335 813.5L554.368 714.24Z" fill="#CB19D5"/>
<path d="M555.141 714.124L554.451 714.241L571.418 813.502L572.108 813.384L555.141 714.124Z" fill="#CC1AD5"/>
<path d="M555.815 714.007L555.125 714.125L572.091 813.385L572.781 813.267L555.815 714.007Z" fill="#CD1AD4"/>
<path d="M556.372 713.909L555.682 714.027L572.649 813.287L573.339 813.169L556.372 713.909Z" fill="#CE1AD4"/>
<path d="M557.146 713.792L556.456 713.91L573.422 813.171L574.112 813.053L557.146 713.792Z" fill="#CF1BD3"/>
<path d="M557.819 713.676L557.129 713.794L574.096 813.054L574.786 812.936L557.819 713.676Z" fill="#D01BD3"/>
<path d="M558.492 713.559L557.802 713.677L574.769 812.937L575.459 812.819L558.492 713.559Z" fill="#D11BD2"/>
<path d="M559.265 713.443L558.575 713.561L575.542 812.821L576.232 812.703L559.265 713.443Z" fill="#D21CD2"/>
<path d="M559.938 713.326L559.248 713.444L576.215 812.704L576.905 812.586L559.938 713.326Z" fill="#D31CD1"/>
<path d="M560.594 713.211L559.904 713.329L576.871 812.589L577.561 812.471L560.594 713.211Z" fill="#D41CD1"/>
<path d="M561.267 713.094L560.577 713.212L577.544 812.473L578.234 812.355L561.267 713.094Z" fill="#D51CD0"/>
<path d="M562.041 712.978L561.351 713.096L578.317 812.356L579.007 812.238L562.041 712.978Z" fill="#D61DD0"/>
<path d="M562.1 712.9L562.7 712.8H562.8L579.8 812L579.1 812.1L562.1 712.9Z" fill="#D71DCF"/>
<path d="M563.5 712.8L580.5 811.9L579.8 812L562.8 712.8H563.5Z" fill="#D81DCF"/>
<path d="M564.2 712.8L581.2 811.8L580.5 811.9L563.5 712.8H564.2Z" fill="#D91ECE"/>
<path d="M564.9 712.8L581.9 811.6L581.2 811.8L564.2 712.8H564.9Z" fill="#DA1ECE"/>
<path d="M565.7 712.8L582.6 811.5L581.9 811.6L564.9 712.8H565.7Z" fill="#DB1ECD"/>
<path d="M566.4 712.8L583.2 811.4L582.6 811.5L565.7 712.8H566.4Z" fill="#DC1FCD"/>
<path d="M567.1 712.8L583.9 811.3L583.2 811.4L566.4 712.8H567.1Z" fill="#DD1FCC"/>
<path d="M567.8 712.8L584.6 811.2L583.9 811.3L567.1 712.8H567.8Z" fill="#DE1FCC"/>
<path d="M568.5 712.8L585.3 811L584.6 811.2L567.8 712.8H568.5Z" fill="#DF20CB"/>
<path d="M569.2 712.8L586 810.9L585.3 811L568.5 712.8H569.2Z" fill="#E020CB"/>
<path d="M569.9 712.8L586.7 810.8L586 810.9L569.2 712.8H569.9Z" fill="#E120CA"/>
<path d="M570.7 712.8L587.4 810.7L586.7 810.8L569.9 712.8H570.7Z" fill="#E220CA"/>
<path d="M571.4 712.8L588.1 810.6L587.4 810.7L570.7 712.8H571.4Z" fill="#E321C9"/>
<path d="M572.1 712.8L588.8 810.4L588.1 810.6L571.4 712.8H572.1Z" fill="#E421C8"/>
<path d="M572.8 712.8L589.5 810.3L588.8 810.4L572.1 712.8H572.8Z" fill="#E521C8"/>
<path d="M573.5 712.8L590.2 810.2L589.5 810.3L572.8 712.8H573.5Z" fill="#E622C7"/>
<path d="M574.2 712.8L590.9 810.1L590.2 810.2L573.5 712.8H574.2Z" fill="#E722C7"/>
<path d="M574.9 712.8L591.6 810L590.9 810.1L574.2 712.8H574.9Z" fill="#E822C6"/>
<path d="M575.6 712.8L592.3 809.9L591.6 810L574.9 712.8H575.6Z" fill="#E923C6"/>
<path d="M576.4 712.8L593 809.7L592.3 809.9L575.6 712.8H576.4Z" fill="#EA23C5"/>
<path d="M577.1 712.8L593.6 809.6L593 809.7L576.4 712.8H577.1Z" fill="#EB23C5"/>
<path d="M577.8 712.8L594.3 809.5L593.6 809.6L577.1 712.8H577.8Z" fill="#EC24C4"/>
<path d="M578.5 712.8L595 809.4L594.3 809.5L577.8 712.8H578.5Z" fill="#ED24C4"/>
<path d="M579.2 712.8L595.7 809.3L595 809.4L578.5 712.8H579.2Z" fill="#EE24C3"/>
<path d="M579.9 712.8L596.4 809.1L595.7 809.3L579.2 712.8H579.9Z" fill="#EF24C3"/>
<path d="M580.6 712.8L597.1 809L596.4 809.1L579.9 712.8H580.6Z" fill="#F025C2"/>
<path d="M581.4 712.8L597.8 808.9L597.1 809L580.6 712.8H581.4Z" fill="#F125C2"/>
<path d="M582.1 712.8L598.5 808.8L597.8 808.9L581.4 712.8H582.1Z" fill="#F225C1"/>
<path d="M582.8 712.8L599.2 808.7L598.5 808.8L582.1 712.8H582.8Z" fill="#F326C1"/>
<path d="M583.5 712.8L599.9 808.5L599.2 808.7L582.8 712.8H583.5Z" fill="#F426C0"/>
<path d="M584.2 712.8L600.6 808.4L599.9 808.5L583.5 712.8H584.2Z" fill="#F526C0"/>
<path d="M584.9 712.8L601.3 808.3L600.6 808.4L584.2 712.8H584.9Z" fill="#F627BF"/>
<path d="M585.6 712.8L602 808.2L601.3 808.3L584.9 712.8H585.6Z" fill="#F727BF"/>
<path d="M586.4 712.8L602.7 808.1L602 808.2L585.6 712.8H586.4Z" fill="#F827BE"/>
<path d="M587.1 712.8L603.4 808L602.7 808.1L586.4 712.8H587.1Z" fill="#F927BE"/>
<path d="M587.8 712.8L604 807.8L603.4 808L587.1 712.8H587.8Z" fill="#FA28BD"/>
<path d="M588.5 712.8L604.7 807.7L604 807.8L587.8 712.8H588.5Z" fill="#FB28BD"/>
<path d="M589.2 712.8L605.4 807.2V807.6L604.7 807.7L588.5 712.8H589.2Z" fill="#FC28BC"/>
<path d="M589.9 712.8L605.4 803V807.2L589.2 712.8H589.9Z" fill="#FD29BC"/>
<path d="M590.6 712.8L605.4 798.8V803L589.9 712.8H590.6Z" fill="#FE29BB"/>
<path d="M605.4 798.8L590.6 712.8H605.4V798.8Z" fill="#FE29BB"/>
</g>
</svg>
